<?xml version="1.0" encoding="UTF-8" standalone="no"?>
<!DOCTYPE svg PUBLIC "-//W3C//DTD SVG 1.1//EN" "http://www.w3.org/Graphics/SVG/1.1/DTD/svg11.dtd">
<svg width="100%" height="100%" viewBox="0 0 24 24" version="1.1" xmlns="http://www.w3.org/2000/svg" xmlns:xlink="http://www.w3.org/1999/xlink" xml:space="preserve" xmlns:serif="http://www.serif.com/" style="fill-rule:evenodd;clip-rule:evenodd;stroke-linejoin:round;stroke-miterlimit:2;">
    <g transform="matrix(0.113601,0,0,0.113601,-0.350756,-0.390273)">
        <path id="shape" d="M20.693,144.067L20.693,139.825C20.913,139.284 21.264,138.76 21.334,138.202C23.537,120.307 37.024,110.718 52.681,108.111C64.304,106.176 75.69,108.155 86.934,110.775C96.528,113.011 105.982,115.848 115.537,118.429C119.347,113.444 125.621,97.735 125.344,93.272L52.378,93.272L52.378,85.407L90.127,85.407L90.127,72.384L44.405,72.384L44.405,64.388L90.372,64.388C90.372,58.459 90.236,52.936 90.452,47.427C90.52,45.683 91.527,43.976 92.105,42.252L112.609,42.252L112.609,64.496L158.294,64.496L158.294,72.514L113.227,72.514L113.227,85.553L150.196,85.553C146.988,99.815 141.609,112.827 134.744,125.43C155.399,132.987 175.575,140.767 196.748,145.481L196.748,175.177C173.373,165.022 149.947,154.979 126.678,144.587C123.191,143.031 121.629,143.872 119.49,146.392C110.059,157.501 98.724,166.171 84.986,171.2C79.092,173.356 72.776,174.358 66.651,175.884L57.459,175.884C54.035,175.124 50.544,174.579 47.195,173.567C33.327,169.379 23.548,161.249 21.294,146.069C21.192,145.387 20.898,144.734 20.693,144.067ZM105.535,134.46C92.534,128.229 79.847,122.269 65.603,120.502C55.986,119.309 46.826,120.472 38.272,125.05C28.026,130.533 25.2,142.809 32.028,151.816C35.405,156.271 40.06,158.98 45.347,160.591C58.415,164.575 70.632,162.268 82.247,155.527C91.396,150.216 98.942,143.173 105.535,134.46Z" style="fill-rule:nonzero;"/>
    </g>
</svg>
