<?xml version="1.0" encoding="UTF-8" standalone="no"?>
<!DOCTYPE svg PUBLIC "-//W3C//DTD SVG 1.1//EN" "http://www.w3.org/Graphics/SVG/1.1/DTD/svg11.dtd">
<svg width="100%" height="100%" viewBox="0 0 24 24" version="1.1" xmlns="http://www.w3.org/2000/svg" xmlns:xlink="http://www.w3.org/1999/xlink" xml:space="preserve" xmlns:serif="http://www.serif.com/" style="fill-rule:evenodd;clip-rule:evenodd;stroke-linejoin:round;stroke-miterlimit:2;">
    <g id="layer" transform="matrix(0.12,0,0,0.12,9.375e-09,9.375e-09)">
        <path id="shape" d="M100,16.667C146.025,16.667 183.333,53.975 183.333,100C183.333,146.025 146.025,183.333 100,183.333C53.975,183.333 16.667,146.025 16.667,100C16.667,53.975 53.975,16.667 100,16.667ZM73.525,127.858C70.233,123.883 66.142,122.467 61.2,123.617L59.95,123.958L55.033,132.425C54.37,133.505 54.019,134.747 54.019,136.015C54.019,139.777 57.115,142.873 60.877,142.873C63.065,142.873 65.126,141.826 66.417,140.058L66.933,139.283L73.517,127.858L73.525,127.858ZM110.083,72.167C106.017,75.533 101.917,85.475 107.667,95.392L133,139.275C134.232,141.369 136.488,142.659 138.918,142.659C142.685,142.659 145.785,139.56 145.785,135.793C145.785,134.925 145.62,134.065 145.3,133.258L144.892,132.425L138.208,120.825L148.142,120.825C151.89,120.825 154.975,117.74 154.975,113.992L154.975,113.967C154.984,110.525 152.391,107.586 148.975,107.167L148.117,107.117L130.283,107.117L112,75.475L110.083,72.175L110.083,72.167ZM112.4,46.8C109.438,45.099 105.634,45.85 103.542,48.55L103.025,49.317L99.967,54.592L96.975,49.317C95.743,47.222 93.487,45.932 91.057,45.932C87.29,45.932 84.19,49.032 84.19,52.799C84.19,53.667 84.355,54.527 84.675,55.333L85.083,56.167L92.067,68.308L69.692,107.083L52.2,107.083C48.451,107.083 45.367,110.168 45.367,113.917L45.367,113.933C45.367,117.442 47.967,120.317 51.358,120.742L52.217,120.792L114.55,120.792C117.383,115.458 114.05,107.883 107.8,107.142L106.792,107.083L85.517,107.083L114.917,56.167C116.795,52.907 115.659,48.679 112.4,46.8Z" style="fill-rule:nonzero;"/>
    </g>
</svg>
