<?xml version="1.0" encoding="UTF-8" standalone="no"?>
<!DOCTYPE svg PUBLIC "-//W3C//DTD SVG 1.1//EN" "http://www.w3.org/Graphics/SVG/1.1/DTD/svg11.dtd">
<svg width="100%" height="100%" viewBox="0 0 24 24" version="1.1" xmlns="http://www.w3.org/2000/svg" xmlns:xlink="http://www.w3.org/1999/xlink" xml:space="preserve" xmlns:serif="http://www.serif.com/" style="fill-rule:evenodd;clip-rule:evenodd;stroke-linejoin:round;stroke-miterlimit:2;">
    <g transform="matrix(0.114286,0,0,0.114286,0.571429,0.572546)">
        <g id="layer">
            <path id="shape" d="M150,12.48L50,12.48C29.375,12.48 12.5,29.355 12.5,49.98L12.5,150C12.5,170.625 29.375,187.5 50,187.5L150,187.5C170.625,187.5 187.5,170.625 187.5,150L187.5,50C187.52,29.355 170.645,12.48 150,12.48ZM137.266,130.938C136.836,132.813 136.074,134.57 134.883,136.133C133.691,137.695 132.188,139.004 130.391,139.941C128.574,140.938 126.699,141.504 124.707,141.875C120.957,142.559 118.34,142.754 115.957,142.305C113.652,141.875 111.641,140.859 110.02,139.551C107.637,137.559 106.211,134.863 105.898,132.051C105.527,128.73 106.719,125.234 109.395,122.617C110.762,121.309 112.461,120.234 114.707,119.434C117.09,118.555 119.707,118.066 123.711,117.305C124.766,117.109 125.84,116.934 126.895,116.738C128.262,116.484 129.453,116.172 130.449,115.059C131.445,113.926 131.445,112.617 131.445,111.309L131.445,77.871C131.445,75.313 130.195,74.629 127.578,75.059C125.703,75.371 85.254,82.93 85.254,82.93C82.949,83.438 82.188,84.121 82.188,86.738L82.188,135.742C82.188,137.676 82.07,139.375 81.621,141.309C81.191,143.184 80.43,144.941 79.238,146.504C78.047,148.066 76.543,149.375 74.746,150.313C72.93,151.309 71.055,151.875 69.063,152.246C65.313,152.93 62.695,153.125 60.313,152.676C58.008,152.246 55.996,151.23 54.375,149.863C51.992,147.871 50.684,145.176 50.313,142.363C49.941,139.043 50.996,135.547 53.691,132.93C55.059,131.621 56.758,130.547 59.004,129.746C61.387,128.867 64.004,128.379 68.008,127.617C69.063,127.422 70.137,127.246 71.191,127.051C72.559,126.797 73.75,126.484 74.746,125.371C75.684,124.316 75.801,122.988 75.801,121.68L75.801,65.293C75.801,64.551 75.859,64.043 75.918,63.789C76.113,62.598 76.602,61.602 77.539,60.859C78.281,60.234 79.297,59.863 80.605,59.609L129.297,50.488C129.727,50.43 133.242,49.805 133.613,49.805C136.23,49.609 137.734,51.172 137.734,53.809L137.734,125.391C137.695,127.324 137.695,129.004 137.266,130.938Z" style="fill-rule:nonzero;"/>
        </g>
    </g>
</svg>
