<?xml version="1.0" encoding="UTF-8" standalone="no"?>
<!DOCTYPE svg PUBLIC "-//W3C//DTD SVG 1.1//EN" "http://www.w3.org/Graphics/SVG/1.1/DTD/svg11.dtd">
<svg width="100%" height="100%" viewBox="0 0 24 24" version="1.1" xmlns="http://www.w3.org/2000/svg" xmlns:xlink="http://www.w3.org/1999/xlink" xml:space="preserve" xmlns:serif="http://www.serif.com/" style="fill-rule:evenodd;clip-rule:evenodd;stroke-linejoin:round;stroke-miterlimit:2;">
    <g transform="matrix(0.499983,0,0,0.499983,6.64581e-05,0.226541)">
        <path d="M20.56,22.64C21.319,22.313 22.001,21.829 22.56,21.22C23.362,20.174 23.766,18.876 23.7,17.56C23.736,16.204 23.337,14.872 22.56,13.76C20.942,11.856 18.486,10.867 16,11.12L5.5,11.12C4.677,11.12 4,11.797 4,12.62L4,34.5C4.011,35.319 4.681,35.989 5.5,36L15.2,36C16.382,36.006 17.561,35.892 18.72,35.66C19.741,35.463 20.704,35.039 21.54,34.42C22.246,33.869 22.843,33.19 23.3,32.42C24.045,31.221 24.427,29.831 24.4,28.42C24.441,27.137 24.1,25.869 23.42,24.78C22.73,23.77 21.724,23.017 20.56,22.64ZM9.74,15.44L14.38,15.44C15.374,15.411 16.366,15.54 17.32,15.82C18.213,16.215 18.75,17.15 18.64,18.12C18.737,18.975 18.351,19.816 17.64,20.3C16.835,20.748 15.92,20.963 15,20.92L9.74,20.92L9.74,15.44ZM17.52,31.54C16.728,31.891 15.865,32.049 15,32L9.74,32L9.74,25L15.08,25C15.934,24.977 16.785,25.127 17.58,25.44C18.632,25.967 19.26,27.088 19.16,28.26C19.305,29.578 18.662,30.865 17.52,31.54ZM31,15L39,15C39.549,15 40,14.549 40,14L40,13C40,12.451 39.549,12 39,12L31,12C30.451,12 30,12.451 30,13L30,14C30,14.549 30.451,15 31,15ZM43.72,27.48C43.901,27.292 44.002,27.041 44,26.78C44.011,25.931 43.957,25.081 43.84,24.24C43.657,22.92 43.171,21.661 42.42,20.56C41.655,19.434 40.587,18.547 39.34,18C38.023,17.423 36.597,17.136 35.16,17.16C32.782,17.063 30.468,17.963 28.78,19.64C27.034,21.576 26.146,24.139 26.32,26.74C26.065,29.412 27.072,32.055 29.04,33.88C30.821,35.299 33.044,36.049 35.32,36C37.817,36.144 40.257,35.194 42,33.4C42.728,32.677 43.276,31.793 43.6,30.82C43.671,30.682 43.671,30.518 43.6,30.38C43.51,30.249 43.359,30.173 43.2,30.18L39.56,30.18C39.225,30.18 38.91,30.344 38.72,30.62C38.536,30.914 38.307,31.178 38.04,31.4C37.296,31.969 36.376,32.26 35.44,32.22C34.538,32.25 33.648,32.014 32.88,31.54C31.632,30.712 30.921,29.274 31.02,27.78L43.02,27.78C43.283,27.774 43.534,27.667 43.72,27.48ZM31.12,25C31.224,23.97 31.659,23.001 32.36,22.24C33.108,21.52 34.123,21.143 35.16,21.2C36.17,21.166 37.157,21.516 37.92,22.18C38.704,22.908 39.154,23.93 39.16,25L31.12,25Z" style="fill-rule:nonzero;"/>
    </g>
</svg>
