<?xml version="1.0" encoding="UTF-8" standalone="no"?>
<!DOCTYPE svg PUBLIC "-//W3C//DTD SVG 1.1//EN" "http://www.w3.org/Graphics/SVG/1.1/DTD/svg11.dtd">
<svg width="100%" height="100%" viewBox="0 0 24 24" version="1.1" xmlns="http://www.w3.org/2000/svg" xmlns:xlink="http://www.w3.org/1999/xlink" xml:space="preserve" xmlns:serif="http://www.serif.com/" style="fill-rule:evenodd;clip-rule:evenodd;stroke-linejoin:round;stroke-miterlimit:2;">
    <g transform="matrix(0.0999987,0,0,0.0999987,1.99951,2.00013)">
        <g id="layer">
            <path id="shape" d="M95.866,101.8C94.874,103.958 93.774,106.375 92.641,108.95C88.624,118.05 84.174,129.117 82.557,136.208C81.905,139.208 81.592,142.272 81.624,145.342C81.624,146.708 81.699,148.15 81.807,149.625C87.491,151.708 93.616,152.858 100.024,152.875C105.692,152.863 111.321,151.945 116.699,150.158C115.442,149.028 114.277,147.799 113.216,146.483C106.099,137.408 102.141,124.133 95.866,101.8M69.632,56.775C55.565,66.66 47.166,82.807 47.149,100C47.168,116.928 55.312,132.857 69.024,142.783C72.274,129.267 80.407,116.892 92.607,92.083C91.882,90.092 91.057,87.917 90.132,85.625C86.749,77.142 81.874,67.308 77.524,62.85C75.191,60.465 72.535,58.42 69.632,56.775M146.066,160.642C139.066,159.767 133.291,158.708 128.224,156.925C119.456,161.269 109.801,163.53 100.016,163.53C65.162,163.53 36.481,134.853 36.474,100C36.459,81.71 44.367,64.283 58.141,52.25C54.53,51.361 50.826,50.907 47.107,50.9C28.474,51.067 8.799,61.383 0.607,89.25C-0.159,93.3 0.024,96.367 0.024,100C0.024,155.225 44.799,200 100.024,200C133.849,200 163.716,183.192 181.816,157.492C172.032,159.933 162.607,161.1 154.557,161.125C151.541,161.125 148.707,160.958 146.066,160.642M127.282,141.267C127.899,141.567 129.299,142.075 131.241,142.625C144.822,132.68 152.877,116.833 152.907,100L152.891,100C152.85,71.009 129.007,47.166 100.016,47.125C94.374,47.133 88.769,48.044 83.416,49.825C94.157,62.058 99.316,79.542 104.307,98.675L104.316,98.7C104.324,98.717 105.916,104.008 108.632,111.033C111.349,118.05 115.207,126.742 119.407,133.075C122.174,137.325 125.216,140.375 127.282,141.267M100.016,0C67.797,-0.017 37.486,15.565 18.749,41.775C28.199,35.858 37.841,33.717 46.257,33.8C57.874,33.833 67.016,37.433 71.399,39.9C72.457,40.508 73.466,41.167 74.449,41.842C82.505,38.302 91.209,36.475 100.007,36.475C134.859,36.475 163.54,65.148 163.549,100C163.565,116.987 156.751,133.287 144.649,145.208C147.516,145.525 150.557,145.733 153.682,145.717C164.749,145.717 176.732,143.275 185.699,135.733C191.557,130.8 196.457,123.583 199.174,112.758C199.716,108.575 200.007,104.325 200.007,100C200.007,44.775 155.249,-0 100.016,-0" style="fill-rule:nonzero;"/>
        </g>
    </g>
</svg>
