<?xml version="1.0" encoding="UTF-8" standalone="no"?>
<!DOCTYPE svg PUBLIC "-//W3C//DTD SVG 1.1//EN" "http://www.w3.org/Graphics/SVG/1.1/DTD/svg11.dtd">
<svg width="100%" height="100%" viewBox="0 0 100 100" version="1.1" xmlns="http://www.w3.org/2000/svg" xmlns:xlink="http://www.w3.org/1999/xlink" xml:space="preserve" xmlns:serif="http://www.serif.com/" style="fill-rule:evenodd;clip-rule:evenodd;stroke-linejoin:round;stroke-miterlimit:2;">
    <g transform="matrix(0.287306,0,0,0.287306,84.5044,43.8074)">
        <g id="layer">
            <path id="shape" d="M0,42.41L-31.18,21.552L0,0.695L0,42.41ZM-107.633,130.822L-107.633,72.689L-53.598,36.551L-9.979,65.723L-107.633,130.822ZM-120.095,51.038L-164.179,21.552L-120.095,-7.934L-76.015,21.552L-120.095,51.038ZM-132.561,130.822L-230.216,65.723L-186.593,36.551L-132.561,72.689L-132.561,130.822ZM-240.194,0.695L-209.011,21.552L-240.194,42.41L-240.194,0.695ZM-132.561,-87.718L-132.561,-29.585L-186.593,6.561L-230.216,-22.62L-132.561,-87.718ZM-107.633,-87.718L-9.979,-22.62L-53.598,6.561L-107.633,-29.585L-107.633,-87.718ZM24.817,-24.26C24.791,-24.443 24.745,-24.618 24.715,-24.801C24.653,-25.153 24.589,-25.504 24.497,-25.847C24.443,-26.053 24.367,-26.251 24.303,-26.449C24.203,-26.755 24.104,-27.06 23.982,-27.357C23.897,-27.563 23.799,-27.769 23.704,-27.967C23.573,-28.25 23.437,-28.525 23.28,-28.791C23.166,-28.99 23.044,-29.181 22.926,-29.371C22.758,-29.631 22.586,-29.883 22.398,-30.127C22.262,-30.31 22.117,-30.493 21.972,-30.669C21.773,-30.897 21.567,-31.126 21.35,-31.34C21.187,-31.507 21.025,-31.675 20.854,-31.828C20.625,-32.034 20.389,-32.233 20.148,-32.423C19.962,-32.568 19.778,-32.713 19.584,-32.85C19.511,-32.896 19.447,-32.957 19.378,-33.003L-113.184,-121.377C-117.371,-124.169 -122.823,-124.169 -127.011,-121.377L-259.572,-33.003C-259.641,-32.957 -259.706,-32.896 -259.778,-32.85C-259.973,-32.713 -260.156,-32.568 -260.339,-32.423C-260.583,-32.233 -260.82,-32.034 -261.044,-31.828C-261.22,-31.675 -261.38,-31.507 -261.544,-31.34C-261.761,-31.126 -261.967,-30.897 -262.162,-30.669C-262.311,-30.493 -262.456,-30.31 -262.593,-30.127C-262.776,-29.883 -262.952,-29.631 -263.116,-29.371C-263.242,-29.181 -263.36,-28.99 -263.474,-28.791C-263.627,-28.525 -263.764,-28.25 -263.898,-27.967C-263.993,-27.769 -264.092,-27.563 -264.176,-27.357C-264.298,-27.06 -264.397,-26.755 -264.497,-26.449C-264.562,-26.251 -264.634,-26.053 -264.691,-25.847C-264.783,-25.504 -264.844,-25.153 -264.909,-24.801C-264.939,-24.618 -264.985,-24.443 -265.008,-24.26C-265.081,-23.726 -265.122,-23.184 -265.122,-22.635L-265.122,65.739C-265.122,66.288 -265.081,66.83 -265.008,67.372C-264.985,67.548 -264.939,67.73 -264.909,67.905C-264.844,68.257 -264.783,68.607 -264.691,68.951C-264.634,69.157 -264.562,69.355 -264.497,69.554C-264.397,69.858 -264.298,70.164 -264.176,70.469C-264.092,70.676 -263.993,70.874 -263.898,71.072C-263.764,71.353 -263.627,71.628 -263.474,71.903C-263.36,72.095 -263.242,72.284 -263.116,72.475C-262.952,72.735 -262.776,72.987 -262.593,73.231C-262.456,73.422 -262.311,73.597 -262.162,73.772C-261.967,74.001 -261.761,74.23 -261.544,74.444C-261.38,74.611 -261.22,74.779 -261.044,74.931C-260.82,75.139 -260.583,75.337 -260.339,75.527C-260.156,75.673 -259.973,75.817 -259.778,75.954C-259.706,76 -259.641,76.061 -259.572,76.106L-127.011,164.481C-124.917,165.877 -122.506,166.579 -120.095,166.579C-117.688,166.579 -115.278,165.877 -113.184,164.481L19.378,76.106C19.447,76.061 19.511,76 19.584,75.954C19.778,75.817 19.962,75.673 20.148,75.527C20.389,75.337 20.625,75.139 20.854,74.931C21.025,74.779 21.187,74.611 21.35,74.444C21.567,74.23 21.773,74.001 21.972,73.772C22.117,73.597 22.262,73.422 22.398,73.231C22.586,72.987 22.758,72.735 22.926,72.475C23.044,72.284 23.166,72.095 23.28,71.903C23.437,71.628 23.573,71.353 23.704,71.072C23.799,70.874 23.897,70.676 23.982,70.469C24.104,70.164 24.203,69.858 24.303,69.554C24.367,69.355 24.443,69.157 24.497,68.951C24.589,68.607 24.653,68.257 24.715,67.905C24.745,67.73 24.791,67.548 24.817,67.372C24.886,66.83 24.929,66.288 24.929,65.739L24.929,-22.635C24.929,-23.184 24.886,-23.726 24.817,-24.26" style="fill-rule:nonzero;"/>
        </g>
    </g>
</svg>
