<?xml version="1.0" encoding="UTF-8" standalone="no"?>
<!DOCTYPE svg PUBLIC "-//W3C//DTD SVG 1.1//EN" "http://www.w3.org/Graphics/SVG/1.1/DTD/svg11.dtd">
<svg width="100%" height="100%" viewBox="0 0 24 24" version="1.1" xmlns="http://www.w3.org/2000/svg" xmlns:xlink="http://www.w3.org/1999/xlink" xml:space="preserve" xmlns:serif="http://www.serif.com/" style="fill-rule:evenodd;clip-rule:evenodd;stroke-linejoin:round;stroke-miterlimit:2;">
    <g transform="matrix(0.419287,0,0,0.419287,2,1.93711)">
        <g id="layer">
            <path id="shape" d="M39,12.75L39,20.1C38.85,28.5 32.25,35.1 24,35.1C15.75,35.1 9.15,28.5 9,20.1L9,12.75L39,12.75L39,3.75L2.1,3.75C0.9,3.9 0,4.8 0,6L0,20.55C0,22.2 0.15,23.7 0.45,25.35C0.75,26.85 1.2,28.35 1.95,29.7C2.55,31.2 3.3,32.55 4.2,33.75C5.1,34.95 6,36.15 7.05,37.2C7.65,37.8 8.4,38.4 9,39C9.45,39.45 10.05,39.75 10.5,40.2C11.7,41.1 13.2,41.85 14.55,42.45C16.05,43.05 17.55,43.5 19.05,43.8C20.55,44.1 22.2,44.25 23.85,44.25C25.5,44.25 27.15,44.1 28.65,43.8C30.15,43.5 31.65,43.05 33.15,42.45C34.65,41.85 36,41.1 37.2,40.2C37.8,39.75 38.25,39.45 38.7,39C39.3,38.4 40.05,37.8 40.65,37.2C41.7,36.15 42.75,34.95 43.5,33.75C44.4,32.55 45.15,31.2 45.75,29.7C46.35,28.2 46.8,26.7 47.25,25.35C47.55,23.85 47.7,22.2 47.7,20.55L47.7,12.75L39,12.75Z" style="fill-rule:nonzero;"/>
        </g>
    </g>
</svg>
