<?xml version="1.0" encoding="UTF-8" standalone="no"?>
<!DOCTYPE svg PUBLIC "-//W3C//DTD SVG 1.1//EN" "http://www.w3.org/Graphics/SVG/1.1/DTD/svg11.dtd">
<svg width="100%" height="100%" viewBox="0 0 24 24" version="1.1" xmlns="http://www.w3.org/2000/svg" xmlns:xlink="http://www.w3.org/1999/xlink" xml:space="preserve" xmlns:serif="http://www.serif.com/" style="fill-rule:evenodd;clip-rule:evenodd;stroke-linejoin:round;stroke-miterlimit:2;">
    <g id="layer" transform="matrix(0.100857,0,0,0.100857,-0.551689,-1.82249)">
        <path id="inner" d="M142.8,120.1C137.1,120.1 132.6,125 132.6,131.1C132.6,137.2 137.2,142.1 142.8,142.1C148.5,142.1 153,137.2 153,131.1C153,125 148.4,120.1 142.8,120.1ZM106.3,120.1C100.6,120.1 96.1,125 96.1,131.1C96.1,137.2 100.7,142.1 106.3,142.1C112,142.1 116.5,137.2 116.5,131.1C116.6,125 112,120.1 106.3,120.1Z" style="fill-rule:nonzero;"/>
        <g id="outer" transform="matrix(1,0,0,1,0,1)">
            <path d="M191.4,36.9L57.4,36.9C46.1,36.9 36.9,46.1 36.9,57.4L36.9,191.4C36.9,202.7 46.1,211.9 57.4,211.9L170.8,211.9L165.5,193.6L178.3,205.4L190.4,216.5L212,235.2L212,57.4C211.9,46.1 202.7,36.9 191.4,36.9ZM152.8,166.4C152.8,166.4 149.2,162.1 146.2,158.4C159.3,154.7 164.3,146.6 164.3,146.6C160.2,149.3 156.3,151.2 152.8,152.5C147.8,154.6 143,155.9 138.3,156.8C128.7,158.6 119.9,158.1 112.4,156.7C106.7,155.6 101.8,154.1 97.7,152.4C95.4,151.5 92.9,150.4 90.4,149C90.1,148.8 89.8,148.7 89.5,148.5C89.3,148.4 89.2,148.3 89.1,148.3C87.3,147.3 86.3,146.6 86.3,146.6C86.3,146.6 91.1,154.5 103.8,158.3C100.8,162.1 97.1,166.5 97.1,166.5C75,165.8 66.6,151.4 66.6,151.4C66.6,119.5 81,93.6 81,93.6C95.4,82.9 109,83.2 109,83.2L110,84.4C92,89.5 83.8,97.4 83.8,97.4C83.8,97.4 86,96.2 89.7,94.6C100.4,89.9 108.9,88.7 112.4,88.3C113,88.2 113.5,88.1 114.1,88.1C120.2,87.3 127.1,87.1 134.3,87.9C143.8,89 154,91.8 164.4,97.4C164.4,97.4 156.5,89.9 139.5,84.8L140.9,83.2C140.9,83.2 154.6,82.9 168.9,93.6C168.9,93.6 183.3,119.5 183.3,151.4C183.3,151.3 174.9,165.7 152.8,166.4Z" style="fill-rule:nonzero;"/>
        </g>
    </g>
</svg>
