<?xml version="1.0" encoding="UTF-8" standalone="no"?>
<!DOCTYPE svg PUBLIC "-//W3C//DTD SVG 1.1//EN" "http://www.w3.org/Graphics/SVG/1.1/DTD/svg11.dtd">
<svg width="100%" height="100%" viewBox="0 0 24 24" version="1.1" xmlns="http://www.w3.org/2000/svg" xmlns:xlink="http://www.w3.org/1999/xlink" xml:space="preserve" xmlns:serif="http://www.serif.com/" style="fill-rule:evenodd;clip-rule:evenodd;stroke-linejoin:round;stroke-miterlimit:2;">
    <g transform="matrix(0.5,0,0,0.5,9.375e-09,-0.00218111)">
        <g id="layer">
            <path id="shape" d="M24,4C13.305,3.733 4.282,12.306 4,23C4.015,27.878 5.966,32.556 9.42,36C9.789,36.372 9.998,36.876 10,37.4L10,42C9.997,42.675 10.336,43.309 10.9,43.68C11.457,44.05 12.163,44.118 12.78,43.86L18.2,41.58C18.586,41.42 19.013,41.385 19.42,41.48C20.922,41.826 22.459,42.001 24,42C34.695,42.267 43.718,33.694 44,23C43.718,12.306 34.695,3.733 24,4ZM35,18.42L29.76,26.42C29.212,27.267 28.269,27.78 27.26,27.78L26.4,27.78C25.742,27.78 25.101,27.562 24.58,27.16L20.2,23.78L14.2,28.28C13.879,28.555 13.401,28.555 13.08,28.28C12.74,27.948 12.681,27.418 12.94,27.02L18.2,19.08C18.762,18.24 19.71,17.737 20.72,17.74L21.14,17.74C21.796,17.733 22.437,17.944 22.96,18.34L27.56,21.86L33.68,17.18C34.001,16.905 34.479,16.905 34.8,17.18C35.037,17.34 35.18,17.608 35.18,17.894C35.18,18.084 35.117,18.269 35,18.42Z" style="fill-rule:nonzero;"/>
        </g>
    </g>
</svg>
