<?xml version="1.0" encoding="UTF-8" standalone="no"?>
<!DOCTYPE svg PUBLIC "-//W3C//DTD SVG 1.1//EN" "http://www.w3.org/Graphics/SVG/1.1/DTD/svg11.dtd">
<svg width="100%" height="100%" viewBox="0 0 24 24" version="1.1" xmlns="http://www.w3.org/2000/svg" xmlns:xlink="http://www.w3.org/1999/xlink" xml:space="preserve" xmlns:serif="http://www.serif.com/" style="fill-rule:evenodd;clip-rule:evenodd;stroke-linejoin:round;stroke-miterlimit:2;">
    <g id="layer">
        <path id="shape" d="M18.667,12C18.667,13.84 17.173,15.333 15.333,15.333C13.493,15.333 12,13.84 12,12C12,10.16 13.493,8.667 15.333,8.667C17.173,8.667 18.667,10.16 18.667,12ZM12,18.667C12,20.507 10.507,22 8.667,22C6.827,22 5.333,20.507 5.333,18.667C5.333,16.827 6.827,15.333 8.667,15.333L8.645,15.333C6.815,15.322 5.333,13.833 5.333,12C5.333,10.16 6.827,8.667 8.667,8.667L8.645,8.667C6.815,8.655 5.333,7.166 5.333,5.333C5.333,3.493 6.827,2 8.667,2L15.333,2C17.173,2 18.667,3.493 18.667,5.333C18.667,7.173 17.173,8.667 15.333,8.667L12,8.667L12,18.667Z" style="fill-rule:nonzero;"/>
    </g>
</svg>
