<?xml version="1.0" encoding="UTF-8"?>
<!DOCTYPE svg PUBLIC "-//W3C//DTD SVG 1.1//EN" "http://www.w3.org/Graphics/SVG/1.1/DTD/svg11.dtd">
<svg version="1.1" xmlns="http://www.w3.org/2000/svg" xmlns:xlink="http://www.w3.org/1999/xlink" viewBox="0, 0, 24, 24">
  <g id="layer">
    <path d="M11.999,2.247 C6.477,2.247 2,6.724 2,12.247 C2,16.665 4.865,20.413 8.839,21.736 C9.339,21.827 9.521,21.519 9.521,21.253 C9.521,21.017 9.513,20.387 9.508,19.553 C6.726,20.157 6.14,18.212 6.14,18.212 C5.685,17.058 5.029,16.75 5.029,16.75 C4.121,16.129 5.098,16.142 5.098,16.142 C6.101,16.213 6.629,17.172 6.629,17.172 C7.521,18.7 8.97,18.259 9.54,18.004 C9.631,17.357 9.889,16.916 10.175,16.666 C7.954,16.414 5.62,15.556 5.62,11.724 C5.62,10.633 6.009,9.74 6.649,9.041 C6.546,8.788 6.203,7.771 6.747,6.394 C6.747,6.394 7.586,6.125 9.497,7.419 C10.294,7.198 11.15,7.087 12,7.083 C12.849,7.087 13.705,7.198 14.504,7.419 C16.413,6.125 17.251,6.394 17.251,6.394 C17.797,7.771 17.454,8.788 17.35,9.041 C17.991,9.74 18.379,10.633 18.379,11.724 C18.379,15.566 16.04,16.411 13.813,16.659 C14.172,16.967 14.492,17.578 14.492,18.511 C14.492,19.847 14.479,20.926 14.479,21.253 C14.479,21.521 14.659,21.832 15.167,21.735 C19.137,20.409 22,16.664 22,12.247 C22,6.724 17.522,2.247 11.999,2.247" fill="#181717" id="shape"/>
  </g>
</svg>
