<?xml version="1.0" encoding="UTF-8" standalone="no"?>
<!DOCTYPE svg PUBLIC "-//W3C//DTD SVG 1.1//EN" "http://www.w3.org/Graphics/SVG/1.1/DTD/svg11.dtd">
<svg width="100%" height="100%" viewBox="0 0 24 24" version="1.1" xmlns="http://www.w3.org/2000/svg" xmlns:xlink="http://www.w3.org/1999/xlink" xml:space="preserve" xmlns:serif="http://www.serif.com/" style="fill-rule:evenodd;clip-rule:evenodd;stroke-linejoin:round;stroke-miterlimit:2;">
    <g id="layer" transform="matrix(0.0548571,0,0,0.0537564,1.032,1.24579)">
        <path id="shape" d="M142.9,24.2C97.6,39.7 59,73.6 37.5,116.5C30,131.3 24.6,147 21.3,163.3C13.1,203.7 18.8,246.8 37.4,283.6C49.5,307.6 66.9,329 87.9,345.7C107.8,361.5 130.9,373.3 155.5,379.8C186.5,388.1 219.5,387.9 250.7,380.8C278.9,374.3 305.6,360.8 326.9,341.2C349.4,320.5 365.5,293.3 374,264C383.3,232.1 384.5,198 378.7,165.2L203.7,165.2L203.7,237.8L305.1,237.8C301.2,261 287.4,282.2 267.9,295.3C255.6,303.6 241.5,308.9 226.9,311.5C212.3,314 197.1,314.3 182.5,311.4C167.6,308.4 153.5,302.2 141.1,293.5C121.3,279.6 106.2,259.3 98.5,236.4C90.6,213.1 90.5,187.2 98.5,164C104.1,147.6 113.3,132.5 125.5,120.1C140.5,104.7 160,93.7 181.1,89.2C199.1,85.4 218.1,86.1 235.7,91.4C250.7,95.9 264.5,104.2 275.8,115C287.2,103.6 298.6,92.2 310,80.8C316,74.7 322.3,68.8 328.1,62.5C310.8,46.5 290.4,33.6 268.2,25.4C228.2,10.6 183.2,10.3 142.9,24.2Z" style="fill-rule:nonzero;"/>
    </g>
</svg>
