<?xml version="1.0" encoding="UTF-8" standalone="no"?>
<!DOCTYPE svg PUBLIC "-//W3C//DTD SVG 1.1//EN" "http://www.w3.org/Graphics/SVG/1.1/DTD/svg11.dtd">
<svg width="100%" height="100%" viewBox="0 0 24 24" version="1.1" xmlns="http://www.w3.org/2000/svg" xmlns:xlink="http://www.w3.org/1999/xlink" xml:space="preserve" xmlns:serif="http://www.serif.com/" style="fill-rule:evenodd;clip-rule:evenodd;stroke-linejoin:round;stroke-miterlimit:2;">
    <g id="layer">
        <path id="shape" d="M12,2C9.284,2 8.944,2.012 7.877,2.06C6.813,2.109 6.086,2.278 5.45,2.525C4.792,2.781 4.234,3.122 3.678,3.678C3.122,4.234 2.781,4.792 2.525,5.45C2.278,6.086 2.109,6.813 2.06,7.877C2.011,8.944 2,9.284 2,12C2,14.716 2.011,15.056 2.06,16.123C2.109,17.187 2.278,17.914 2.525,18.55C2.781,19.208 3.122,19.766 3.678,20.322C4.234,20.878 4.792,21.219 5.45,21.475C6.086,21.722 6.813,21.891 7.877,21.94C8.944,21.988 9.284,22 12,22C14.716,22 15.056,21.988 16.123,21.94C17.187,21.891 17.914,21.722 18.55,21.475C19.208,21.219 19.766,20.878 20.322,20.322C20.878,19.766 21.219,19.208 21.475,18.55C21.722,17.914 21.891,17.187 21.94,16.123C21.988,15.056 22,14.716 22,12C22,9.284 21.988,8.944 21.94,7.877C21.891,6.813 21.722,6.086 21.475,5.45C21.219,4.792 20.878,4.234 20.322,3.678C19.766,3.122 19.208,2.781 18.55,2.525C17.914,2.278 17.187,2.109 16.123,2.06C15.056,2.012 14.716,2 12,2ZM12,3.802C14.67,3.802 14.986,3.812 16.041,3.86C17.016,3.905 17.545,4.068 17.898,4.204C18.364,4.386 18.698,4.603 19.048,4.952C19.397,5.302 19.614,5.636 19.796,6.102C19.933,6.455 20.095,6.984 20.14,7.959C20.188,9.014 20.198,9.33 20.198,12C20.198,14.67 20.188,14.986 20.14,16.041C20.095,17.016 19.933,17.545 19.796,17.898C19.614,18.364 19.397,18.698 19.048,19.048C18.698,19.397 18.364,19.614 17.898,19.796C17.545,19.933 17.016,20.095 16.041,20.14C14.987,20.188 14.67,20.198 12,20.198C9.33,20.198 9.013,20.188 7.959,20.14C6.984,20.095 6.455,19.933 6.102,19.796C5.636,19.614 5.302,19.397 4.952,19.048C4.603,18.698 4.386,18.364 4.204,17.898C4.067,17.545 3.905,17.016 3.86,16.041C3.812,14.986 3.802,14.67 3.802,12C3.802,9.33 3.812,9.014 3.86,7.959C3.905,6.984 4.067,6.455 4.204,6.102C4.386,5.636 4.603,5.302 4.952,4.952C5.302,4.603 5.636,4.386 6.102,4.204C6.455,4.068 6.984,3.905 7.959,3.86C9.014,3.812 9.33,3.802 12,3.802ZM12,6.865C9.164,6.865 6.865,9.164 6.865,12C6.865,14.836 9.164,17.135 12,17.135C14.836,17.135 17.135,14.836 17.135,12C17.135,9.164 14.836,6.865 12,6.865ZM12,15.333C10.159,15.333 8.667,13.841 8.667,12C8.667,10.159 10.159,8.667 12,8.667C13.841,8.667 15.333,10.159 15.333,12C15.333,13.841 13.841,15.333 12,15.333ZM18.538,6.662C18.538,7.325 18.001,7.862 17.338,7.862C16.675,7.862 16.138,7.325 16.138,6.662C16.138,5.999 16.675,5.462 17.338,5.462C18.001,5.462 18.538,5.999 18.538,6.662Z" style="fill:rgb(3,4,4);fill-rule:nonzero;"/>
    </g>
</svg>
