<?xml version="1.0" encoding="UTF-8" standalone="no"?>
<!DOCTYPE svg PUBLIC "-//W3C//DTD SVG 1.1//EN" "http://www.w3.org/Graphics/SVG/1.1/DTD/svg11.dtd">
<svg width="100%" height="100%" viewBox="0 0 24 24" version="1.1" xmlns="http://www.w3.org/2000/svg" xmlns:xlink="http://www.w3.org/1999/xlink" xml:space="preserve" xmlns:serif="http://www.serif.com/" style="fill-rule:evenodd;clip-rule:evenodd;stroke-linejoin:round;stroke-miterlimit:2;">
    <g transform="matrix(0.120005,0,0,0.120005,-0.000495176,-9.41077e-06)">
        <g id="layer">
            <path id="shape" d="M120.65,124.025C114.385,124.636 108.073,123.487 102.425,120.708C99.839,118.641 98.221,115.592 97.958,112.292C97.949,111.283 97.117,110.458 96.108,110.458C96.097,110.458 96.086,110.458 96.075,110.458C93.436,110.432 90.797,110.432 88.158,110.458C87.207,110.362 86.342,111.058 86.233,112.008C85.931,117.806 88.234,123.446 92.508,127.375C97.841,131.54 104.32,133.979 111.075,134.367C118.114,135.182 125.239,134.878 132.183,133.467C137.514,132.473 142.404,129.838 146.167,125.933C150.392,120.724 151.641,113.687 149.467,107.342C147.648,102.881 143.858,99.507 139.217,98.217C128.55,94.467 117.017,94.758 106.133,91.908C104.242,91.325 101.933,90.675 101.092,88.675C100.096,85.796 101.052,82.584 103.458,80.717C106.877,78.762 110.772,77.793 114.708,77.917C120.043,77.417 125.421,78.188 130.4,80.167C133.428,81.947 135.524,84.973 136.125,88.433C136.153,89.477 136.983,90.336 138.025,90.4C140.642,90.45 143.258,90.408 145.883,90.417C146.818,90.527 147.7,89.926 147.942,89.017C147.988,81.836 144.217,75.146 138.05,71.467C129.677,67.601 120.38,66.177 111.233,67.358C104.532,67.634 98.127,70.21 93.1,74.65C88.401,79.719 86.994,87.052 89.483,93.5C91.408,97.79 95.121,101.027 99.633,102.35C110.275,106.192 121.933,104.958 132.667,108.358C134.767,109.067 137.2,110.158 137.842,112.483C138.542,115.321 137.684,118.326 135.592,120.367C131.127,123.142 125.892,124.424 120.65,124.025ZM169.142,53.65C148.375,41.906 127.6,30.169 106.817,18.442C102.583,16.074 97.409,16.074 93.175,18.442L31.083,53.508C26.987,55.737 24.413,60.028 24.375,64.692L24.375,135.317C24.444,140.069 27.126,144.415 31.342,146.608C37.283,149.842 43.058,153.408 49.117,156.433C56.195,160.216 64.658,160.448 71.933,157.058C77.4,153.636 80.583,147.49 80.225,141.05C80.267,117.742 80.225,94.433 80.242,71.133C80.257,71.036 80.265,70.938 80.265,70.84C80.265,69.866 79.489,69.053 78.517,69.008C75.87,68.978 73.222,68.978 70.575,69.008C70.525,69.004 70.475,69.002 70.425,69.002C69.465,69.002 68.675,69.792 68.675,70.752C68.675,70.762 68.675,70.773 68.675,70.783C68.642,93.942 68.683,117.1 68.658,140.267C68.668,143.533 66.634,146.478 63.575,147.625C60.092,148.655 56.331,148.151 53.242,146.242L36.725,136.908C35.979,136.556 35.528,135.772 35.6,134.95L35.6,65.058C35.523,64.132 36.052,63.255 36.908,62.892C57.536,51.269 78.161,39.639 98.783,28C99.515,27.498 100.485,27.498 101.217,28L163.1,62.883C163.948,63.255 164.471,64.127 164.4,65.05L164.4,134.95C164.472,135.776 164.027,136.566 163.283,136.933C142.972,148.422 122.647,159.894 102.308,171.35C101.342,171.883 100.192,172.758 99.058,172.1C93.725,169.083 88.475,165.95 83.158,162.908C82.604,162.483 81.843,162.437 81.242,162.792C78.904,164.163 76.443,165.312 73.892,166.225C72.742,166.692 71.325,166.825 70.533,167.892C71.545,168.989 72.77,169.868 74.133,170.475L92.767,181.25C96.946,183.873 102.239,184.02 106.558,181.633C127.258,169.967 147.958,158.289 168.658,146.6C172.868,144.404 175.547,140.064 175.625,135.317L175.625,64.692C175.586,60.124 173.111,55.91 169.142,53.65Z" style="fill-rule:nonzero;"/>
        </g>
    </g>
</svg>
