<?xml version="1.0" encoding="UTF-8" standalone="no"?>
<!DOCTYPE svg PUBLIC "-//W3C//DTD SVG 1.1//EN" "http://www.w3.org/Graphics/SVG/1.1/DTD/svg11.dtd">
<svg width="100%" height="100%" viewBox="0 0 24 24" version="1.1" xmlns="http://www.w3.org/2000/svg" xmlns:xlink="http://www.w3.org/1999/xlink" xml:space="preserve" xmlns:serif="http://www.serif.com/" style="fill-rule:evenodd;clip-rule:evenodd;stroke-linejoin:round;stroke-miterlimit:2;">
    <g id="layer" transform="matrix(0.1,0,0,0.1,2,1.51585)">
        <path id="shape" d="M121.144,109.839C121.144,109.839 121.444,115.14 142.457,112.04C142.457,112.04 139.93,169.721 144.033,188.559C144.033,188.559 142.457,193.887 137.453,175.374C132.451,156.865 131.174,152.488 128.999,151.537C126.823,150.586 116.765,157.19 111.763,167.848C106.761,178.504 103.908,191.36 103.908,191.36C103.908,191.36 100.583,193.887 100.508,189.784C100.457,185.707 103.283,164.393 103.283,164.393C103.283,164.393 97.506,179.328 96.506,187.133C95.504,194.962 93.478,187.934 93.879,185.531C94.279,183.131 96.604,172.398 93.827,165.995C93.827,165.995 91.277,164.82 74.594,189.959C74.594,189.959 73.191,193.711 71.565,192.135C69.963,190.559 71.767,188.159 73.366,184.13C74.968,180.105 82.022,163.618 84.223,161.592C84.223,161.592 77.596,162.794 73.965,160.993C70.338,159.192 65.912,155.763 68.739,142.481C69.865,137.153 69.989,142.406 69.54,146.31C68.615,154.562 71.94,159.264 78.245,157.89C84.874,156.464 88.251,151.162 88.251,151.162C99.214,137.389 110.179,123.612 121.144,109.839ZM183.53,56.209C113.615,68.766 90.677,60.286 90.677,60.286C90.677,60.286 89.476,58.71 87.9,58.085C86.324,57.459 84.425,63.087 85.998,64.038C87.574,64.988 90.651,63.412 90.651,63.412C110.688,71.892 181.329,60.286 181.329,60.286C175.65,69.99 152.786,95.081 148.384,99.158C143.981,103.235 133.026,105.136 123.619,102.76C114.214,100.383 75.043,86.627 67.814,83.498C60.585,80.346 39.923,68.44 38.047,65.314C36.171,62.162 34.269,62.488 34.269,62.488C37.422,68.141 37.396,85.074 24.237,90.079C11.081,95.106 0,86.95 0,86.95L16.735,46.179C17.359,38.022 20.786,38.324 22.687,38.022C24.589,37.722 31.169,40.549 36.497,44.3C41.825,48.078 41.499,45.877 41.499,45.877C41.499,45.877 96.679,21.137 137.127,17.985C177.577,14.859 190.459,21.639 190.459,21.639C175.926,20.812 164.318,26.966 165.669,31.144C166.545,33.795 170.797,34.195 177.577,34.271C192.209,34.47 199.213,27.367 199.213,27.367C204.241,36.146 183.53,56.209 183.53,56.209ZM93.403,32.795C93.53,28.191 87.574,29.266 86.451,32.043C84.822,36.071 84.874,42.6 88.776,42.151C92.429,41.724 93.23,38.647 93.403,32.795Z" style="fill-rule:nonzero;"/>
    </g>
</svg>
