<?xml version="1.0" encoding="UTF-8" standalone="no"?>
<!DOCTYPE svg PUBLIC "-//W3C//DTD SVG 1.1//EN" "http://www.w3.org/Graphics/SVG/1.1/DTD/svg11.dtd">
<svg width="100%" height="100%" viewBox="0 0 24 24" version="1.1" xmlns="http://www.w3.org/2000/svg" xmlns:xlink="http://www.w3.org/1999/xlink" xml:space="preserve" xmlns:serif="http://www.serif.com/" style="fill-rule:evenodd;clip-rule:evenodd;stroke-linejoin:round;stroke-miterlimit:2;">
    <g id="layer" transform="matrix(0.100007,0,0,0.100007,2.02651,1.99857)">
        <path id="shape" d="M183.814,72.1C185.157,78.348 185.01,85.938 183.371,94.871C176.895,127.91 155.876,144.429 120.314,144.429L115.4,144.429C113.543,144.429 111.905,145.043 110.486,146.271C109.067,147.5 108.176,149.081 107.814,151.014L107.371,153.129L101.229,191.743L101,193.414C100.629,195.348 99.719,196.929 98.271,198.157C96.824,199.386 95.167,200 93.3,200L65.286,200C63.724,200 62.495,199.443 61.6,198.329C60.705,197.214 60.371,195.876 60.6,194.314C61.267,190.143 62.252,183.89 63.557,175.557C64.862,167.224 65.848,160.971 66.514,156.8C67.181,152.629 68.186,146.395 69.529,138.1C70.871,129.805 71.876,123.571 72.543,119.4C72.914,116.648 74.514,115.271 77.343,115.271L91.957,115.271C101.852,115.424 110.633,114.643 118.3,112.929C131.319,110.024 141.995,104.667 150.329,96.857C157.919,89.79 163.686,80.638 167.629,69.4C169.41,64.19 170.71,59.243 171.529,54.557C171.605,54.11 171.7,53.829 171.814,53.714C171.929,53.6 172.057,53.562 172.2,53.6C172.343,53.638 172.567,53.767 172.871,53.986C178.748,58.376 182.395,64.405 183.814,72.071L183.814,72.1ZM164.614,40.629C164.614,48.59 162.905,57.371 159.486,66.971C153.533,84.305 142.3,96.024 125.786,102.129C117.376,105.1 108,106.662 97.657,106.814C97.657,106.89 94.31,106.929 87.614,106.929L77.571,106.814C70.133,106.814 65.743,110.386 64.4,117.529C64.248,118.119 61.086,137.838 54.914,176.686C54.838,177.429 54.39,177.8 53.571,177.8L20.643,177.8C19.005,177.8 17.648,177.186 16.571,175.957C15.495,174.729 15.067,173.295 15.286,171.657L41.171,7.486C41.543,5.324 42.567,3.538 44.243,2.129C45.919,0.719 47.833,0.014 49.986,0.014L116.729,0.014C119.262,0.014 122.89,0.5 127.614,1.471C132.338,2.443 136.486,3.633 140.057,5.043C148.019,8.09 154.1,12.667 158.3,18.771C162.5,24.876 164.6,32.167 164.6,40.643L164.614,40.629Z" style="fill-rule:nonzero;"/>
    </g>
</svg>
