<?xml version="1.0" encoding="UTF-8" standalone="no"?>
<!DOCTYPE svg PUBLIC "-//W3C//DTD SVG 1.1//EN" "http://www.w3.org/Graphics/SVG/1.1/DTD/svg11.dtd">
<svg width="100%" height="100%" viewBox="0 0 24 24" version="1.1" xmlns="http://www.w3.org/2000/svg" xmlns:xlink="http://www.w3.org/1999/xlink" xml:space="preserve" xmlns:serif="http://www.serif.com/" style="fill-rule:evenodd;clip-rule:evenodd;stroke-linejoin:round;stroke-miterlimit:2;">
    <g transform="matrix(0.100004,0,0,0.100004,1.99993,1.99923)">
        <g id="layer">
            <path id="shape" d="M99.417,200C99.417,200 121.358,200 121.358,135.051C121.358,122.96 111.525,113.11 99.417,113.11C87.309,113.11 77.467,122.96 77.467,135.051C77.467,200 99.417,200 99.417,200ZM126.333,177.867C127.291,174.142 128.041,170.401 128.624,166.609L129.066,163.609C130.024,163.193 130.983,162.793 131.949,162.359C147.247,155.392 159.94,143.736 168.182,129.085C171.907,122.393 174.657,115.169 176.29,107.652C178.19,99.213 178.658,90.514 177.673,81.919C176.811,73.881 174.644,66.036 171.257,58.695C167.41,50.027 161.972,42.158 155.224,35.495C148.327,28.579 140.202,23.006 131.266,19.062C122.021,14.957 112.047,12.741 101.933,12.546C91.751,12.261 81.611,13.968 72.084,17.571C46.12,27.468 27.287,50.457 22.693,77.861C21.332,86.079 21.287,94.462 22.56,102.694C23.685,109.96 25.818,117.11 28.96,123.885C36.424,139.667 48.903,152.544 64.442,160.501C66.326,161.368 68.201,162.251 70.209,163.118C70.334,164.126 70.592,165.251 70.709,166.384C71.334,170.034 72.092,173.792 72.967,177.426C69.554,176.311 66.205,175.009 62.934,173.526C44.844,165.286 29.918,151.376 20.427,133.91C16.192,126.03 13.111,117.583 11.277,108.827C9.157,99.067 8.734,89.015 10.027,79.111C11.277,69.845 13.91,60.687 17.802,52.278C22.487,42.333 28.894,33.294 36.726,25.579C44.658,17.73 54.022,11.476 64.309,7.154C75.162,2.592 86.795,0.167 98.567,0.013C110.333,-0.112 122.099,2.013 133.058,6.329C143.631,10.504 153.326,16.627 161.64,24.379C169.682,31.837 176.307,40.729 181.19,50.537C185.323,58.812 188.206,67.836 189.59,76.994C191.09,86.528 191.09,96.302 189.456,105.71C187.999,114.545 185.25,123.117 181.298,131.152C172.446,148.907 158.051,163.308 140.299,172.167C135.908,174.301 131.266,176.176 126.508,177.676L126.333,177.867ZM130.666,142.076L130.749,138.16C130.749,135.526 130.749,132.893 130.366,130.302C130.241,129.293 129.991,128.418 129.741,127.418C138.01,120.579 143.679,111.098 145.791,100.577C146.799,95.561 147.041,90.303 146.299,85.036C145.681,80.41 144.416,75.894 142.541,71.62C140.162,66.453 136.896,61.743 132.891,57.703C128.801,53.697 124.047,50.429 118.841,48.045C113.062,45.501 106.845,44.097 100.533,43.912C94.195,43.803 87.895,44.912 81.975,47.179C76.673,49.308 71.791,52.364 67.559,56.203C63.299,60.019 59.806,64.612 57.268,69.736C52.858,78.214 51.151,87.842 52.376,97.319C53.001,101.961 54.259,106.477 56.134,110.727C59.035,117.11 63.269,122.799 68.551,127.41L67.792,130.793C67.292,133.427 67.417,135.935 67.417,138.685L67.417,142.201C58.618,136.763 51.396,129.11 46.476,120.01C43.604,114.889 41.569,109.341 40.451,103.577C39.073,97.15 38.82,90.533 39.701,84.019C41.358,70.931 47.313,58.756 56.626,49.412C61.719,44.306 67.711,40.184 74.301,37.254C81.577,34.017 89.415,32.228 97.375,31.987C105.383,31.832 113.346,33.239 120.816,36.129C127.569,38.767 133.777,42.632 139.124,47.528C144.435,52.407 148.846,58.181 152.157,64.586C154.79,69.853 156.799,75.495 157.807,81.261C158.872,87.266 158.999,93.4 158.182,99.444C157.445,105.347 155.792,111.1 153.282,116.494C148.3,127.504 140.077,136.739 129.716,142.96L130.666,142.076ZM99.417,62.286C111.551,62.291 121.533,72.277 121.533,84.411L121.533,84.478C121.533,96.613 111.547,106.598 99.413,106.598C87.3,106.598 77.324,96.649 77.292,84.536C77.315,72.416 87.297,62.457 99.417,62.461L99.417,62.286Z" style="fill-rule:nonzero;"/>
        </g>
    </g>
</svg>
