<?xml version="1.0" encoding="UTF-8" standalone="no"?>
<!DOCTYPE svg PUBLIC "-//W3C//DTD SVG 1.1//EN" "http://www.w3.org/Graphics/SVG/1.1/DTD/svg11.dtd">
<svg width="100%" height="100%" viewBox="0 0 24 24" version="1.1" xmlns="http://www.w3.org/2000/svg" xmlns:xlink="http://www.w3.org/1999/xlink" xml:space="preserve" xmlns:serif="http://www.serif.com/" style="fill-rule:evenodd;clip-rule:evenodd;stroke-linejoin:round;stroke-miterlimit:2;">
    <g transform="matrix(0.1,0,0,0.100488,1.99883,1.99991)">
        <g id="layer">
            <path id="shape" d="M174.979,50.67L177.301,51.168L179.955,52.163L182.857,53.656L185.843,55.895L188.828,58.797L191.73,62.695L194.384,67.588L196.706,73.641L198.448,80.939L199.609,89.564L200.023,99.764L199.526,109.964L198.199,118.589L196.209,125.72L193.555,131.608L190.569,136.335L187.252,140.067L183.769,142.804L180.286,144.794L176.969,146.121L173.984,146.867L171.33,147.282L169.34,147.448L168.013,147.365L99.846,147.365L99.846,154.165L148.276,154.165L148.359,177.053L148.525,180.038L148.11,182.858L147.198,185.429L145.788,187.834L143.715,189.907L141.144,191.897L137.993,193.556L134.344,194.966L130.115,196.21L125.305,197.288L119.997,198.034L114.109,198.614L107.724,198.946L100.758,199.029L90.226,198.697L81.353,197.536L73.889,195.878L67.835,193.805L62.943,191.317L59.211,188.58L56.391,185.761L54.318,182.941L52.991,180.204L52.162,177.716L51.83,175.643L51.664,173.985L51.747,172.907L51.747,128.623L52.162,123.315L53.24,118.837L54.982,115.023L57.138,111.871L59.626,109.218L62.362,107.227L65.265,105.569L68.167,104.408L70.904,103.578L73.392,103.081L75.548,102.749L77.289,102.583L78.367,102.5L126.798,102.5L132.52,102.086L137.412,100.925L141.559,99.183L144.959,96.861L147.695,94.208L149.935,91.305L151.593,88.32L152.837,85.334L153.666,82.432L154.247,79.778L154.579,77.456L154.744,75.715L154.744,50.338L172.076,50.338L173.237,50.421L174.979,50.67ZM121.324,168.843L119.417,171.58L118.753,174.98L119.417,178.38L121.324,181.117L124.061,183.024L127.461,183.687L130.861,183.024L133.598,181.117L135.505,178.38L136.168,174.98L135.505,171.58L133.598,168.843L130.861,166.936L127.461,166.272L124.061,166.936L121.324,168.843ZM118.671,1.494L126.134,3.152L132.188,5.308L137.081,7.796L140.812,10.45L143.632,13.269L145.705,16.089L147.032,18.826L147.861,21.314L148.193,23.47L148.359,25.128L148.276,26.206L148.276,70.49L147.861,75.715L146.783,80.276L145.042,84.09L142.886,87.242L140.398,89.812L137.661,91.886L134.759,93.461L131.856,94.622L129.12,95.452L126.632,96.032L124.476,96.364L122.734,96.53L73.226,96.53L67.504,96.944L62.611,98.105L58.465,99.93L55.064,102.169L52.328,104.822L50.089,107.725L48.43,110.71L47.186,113.779L46.357,116.681L45.776,119.335L45.445,121.574L45.279,123.315L45.279,148.692L26.786,148.692L25.044,148.443L22.722,147.862L20.069,146.867L17.166,145.374L14.181,143.218L11.195,140.233L8.293,136.418L5.639,131.525L3.317,125.472L1.576,118.174L0.415,109.466L0,99.266L0.498,89.149L1.824,80.524L3.815,73.31L6.468,67.422L9.454,62.695L12.771,59.046L16.254,56.309L19.737,54.319L23.054,52.992L26.04,52.163L28.693,51.748L30.684,51.665L32.01,51.665L32.508,51.748L100.178,51.748L100.178,44.865L51.747,44.865L51.664,22.06L51.499,18.992L51.913,16.172L52.825,13.601L54.235,11.279L56.308,9.123L58.879,7.216L62.03,5.557L65.679,4.064L69.909,2.82L74.718,1.825L80.026,0.996L85.914,0.498L92.299,0.167L99.265,0.001L109.797,0.416L118.671,1.494ZM66.426,17.913L64.518,20.65L63.855,24.05L64.518,27.45L66.426,30.27L69.162,32.094L72.562,32.841L75.962,32.094L78.699,30.27L80.606,27.45L81.27,24.05L80.606,20.65L78.699,17.913L75.962,16.089L72.562,15.343L69.162,16.089L66.426,17.913Z" style="fill-rule:nonzero;"/>
        </g>
    </g>
</svg>
