<?xml version="1.0" encoding="UTF-8" standalone="no"?>
<!DOCTYPE svg PUBLIC "-//W3C//DTD SVG 1.1//EN" "http://www.w3.org/Graphics/SVG/1.1/DTD/svg11.dtd">
<svg width="100%" height="100%" viewBox="0 0 24 24" version="1.1" xmlns="http://www.w3.org/2000/svg" xmlns:xlink="http://www.w3.org/1999/xlink" xml:space="preserve" xmlns:serif="http://www.serif.com/" style="fill-rule:evenodd;clip-rule:evenodd;stroke-linejoin:round;stroke-miterlimit:2;">
    <g id="layer" transform="matrix(0.1,0,0,0.1,2,2)">
        <path id="shape" d="M105.915,99.665C105.915,101.6 105.301,103.274 104.074,104.688C102.846,106.101 101.302,106.808 99.442,106.808C97.507,106.808 95.833,106.194 94.42,104.967C93.006,103.739 92.299,102.195 92.299,100.335C92.299,98.4 92.932,96.726 94.196,95.313C95.461,93.899 97.024,93.192 98.884,93.192C100.744,93.192 102.381,93.806 103.795,95.033C105.208,96.261 105.915,97.805 105.915,99.665ZM107.589,106.138L146.652,41.295C145.982,41.89 143.471,44.215 139.118,48.27C134.766,52.325 130.097,56.659 125.112,61.272C120.126,65.885 115.048,70.61 109.877,75.446C104.706,80.283 100.353,84.394 96.819,87.779C93.285,91.164 91.406,93.08 91.183,93.527L52.232,158.259C52.753,157.738 55.246,155.432 59.71,151.339C64.174,147.247 68.862,142.913 73.772,138.337C78.683,133.761 83.743,129.036 88.951,124.163C94.159,119.289 98.512,115.16 102.009,111.775C105.506,108.389 107.366,106.51 107.589,106.138ZM179.799,100C179.799,114.955 175.93,128.757 168.192,141.406C167.969,141.257 167.336,140.848 166.295,140.179C165.253,139.509 164.267,138.895 163.337,138.337C162.407,137.779 161.793,137.5 161.496,137.5C160.528,137.5 160.045,137.984 160.045,138.951C160.045,139.695 162.24,141.332 166.629,143.862C161.124,152.195 154.26,159.282 146.038,165.123C137.816,170.964 128.832,175.074 119.085,177.455L117.299,169.978C117.225,169.234 116.667,168.862 115.625,168.862C115.253,168.862 114.955,169.066 114.732,169.475C114.509,169.885 114.435,170.238 114.509,170.536L116.295,178.125C110.937,179.241 105.506,179.799 100,179.799C85.193,179.799 71.354,175.893 58.482,168.08C58.557,167.932 59.04,167.169 59.933,165.792C60.826,164.416 61.626,163.17 62.333,162.054C63.039,160.938 63.393,160.231 63.393,159.933C63.393,158.966 62.909,158.482 61.942,158.482C61.496,158.482 60.863,159.022 60.045,160.1C59.226,161.179 58.389,162.463 57.533,163.951C56.678,165.439 56.176,166.295 56.027,166.518C47.619,160.938 40.476,153.962 34.598,145.592C28.72,137.221 24.628,128.125 22.321,118.304L30.022,116.629C30.766,116.406 31.138,115.848 31.138,114.955C31.138,114.583 30.934,114.286 30.525,114.063C30.115,113.839 29.725,113.765 29.353,113.839L21.763,115.513C20.722,110.156 20.201,104.985 20.201,100C20.201,84.673 24.256,70.573 32.366,57.701C32.515,57.775 33.203,58.222 34.431,59.04C35.658,59.859 36.775,60.565 37.779,61.161C38.783,61.756 39.435,62.054 39.732,62.054C40.699,62.054 41.183,61.607 41.183,60.714C41.183,60.268 40.718,59.691 39.788,58.984C38.858,58.278 37.649,57.478 36.161,56.585L33.929,55.246C39.658,46.912 46.689,39.881 55.022,34.152C63.356,28.423 72.433,24.442 82.254,22.21L83.929,29.688C84.077,30.432 84.635,30.804 85.603,30.804C85.975,30.804 86.272,30.599 86.496,30.19C86.719,29.781 86.793,29.39 86.719,29.018L85.045,21.652C90.327,20.685 95.313,20.201 100,20.201C115.179,20.201 129.278,24.256 142.299,32.366C139.397,36.533 137.946,38.951 137.946,39.621C137.946,40.588 138.393,41.071 139.286,41.071C140.104,41.071 141.89,38.69 144.643,33.929C152.902,39.509 159.877,46.429 165.569,54.688C171.261,62.946 175.26,71.912 177.567,81.585L171.317,82.924C170.573,83.073 170.201,83.668 170.201,84.71C170.201,85.082 170.406,85.379 170.815,85.603C171.224,85.826 171.577,85.9 171.875,85.826L178.237,84.375C179.278,89.732 179.799,94.94 179.799,100ZM189.286,100C189.286,87.872 186.923,76.302 182.199,65.29C177.474,54.278 171.131,44.792 163.17,36.83C155.208,28.869 145.722,22.526 134.71,17.801C123.698,13.077 112.128,10.714 100,10.714C87.872,10.714 76.302,13.077 65.29,17.801C54.278,22.526 44.792,28.869 36.83,36.83C28.869,44.792 22.526,54.278 17.801,65.29C13.077,76.302 10.714,87.872 10.714,100C10.714,112.128 13.077,123.698 17.801,134.71C22.526,145.722 28.869,155.208 36.83,163.17C44.792,171.131 54.278,177.474 65.29,182.199C76.302,186.923 87.872,189.286 100,189.286C112.128,189.286 123.698,186.923 134.71,182.199C145.722,177.474 155.208,171.131 163.17,163.17C171.131,155.208 177.474,145.722 182.199,134.71C186.923,123.698 189.286,112.128 189.286,100ZM200,100C200,113.542 197.359,126.488 192.076,138.839C186.793,151.19 179.687,161.83 170.759,170.759C161.83,179.687 151.19,186.793 138.839,192.076C126.488,197.359 113.542,200 100,200C86.458,200 73.512,197.359 61.161,192.076C48.81,186.793 38.17,179.687 29.241,170.759C20.313,161.83 13.207,151.19 7.924,138.839C2.641,126.488 -0,113.542 0,100C0,86.458 2.641,73.512 7.924,61.161C13.207,48.81 20.313,38.17 29.241,29.241C38.17,20.313 48.81,13.207 61.161,7.924C73.512,2.641 86.458,0 100,0C113.542,-0 126.488,2.641 138.839,7.924C151.19,13.207 161.83,20.313 170.759,29.241C179.687,38.17 186.793,48.81 192.076,61.161C197.359,73.512 200,86.458 200,100Z" style="fill-rule:nonzero;"/>
    </g>
</svg>
