<?xml version="1.0" encoding="UTF-8" standalone="no"?>
<!DOCTYPE svg PUBLIC "-//W3C//DTD SVG 1.1//EN" "http://www.w3.org/Graphics/SVG/1.1/DTD/svg11.dtd">
<svg width="100%" height="100%" viewBox="0 0 24 24" version="1.1" xmlns="http://www.w3.org/2000/svg" xmlns:xlink="http://www.w3.org/1999/xlink" xml:space="preserve" xmlns:serif="http://www.serif.com/" style="fill-rule:evenodd;clip-rule:evenodd;stroke-linejoin:round;stroke-miterlimit:2;">
    <g id="layer" transform="matrix(0.115131,0,0,0.115131,0.484652,0.491628)">
        <path id="shape" d="M186.146,106.229C183.604,98.396 175.188,94.125 167.375,96.667L150.708,102.083L139.792,68.521L156.458,63.104C164.292,60.563 168.563,52.146 166.021,44.333C163.479,36.5 155.063,32.229 147.25,34.771L130.583,40.188L125.125,23.396C122.583,15.563 114.167,11.292 106.354,13.833C98.542,16.375 94.25,24.792 96.792,32.604L102.25,49.396L68.688,60.313L63.229,43.521C60.688,35.688 52.271,31.417 44.458,33.958C36.646,36.5 32.354,44.917 34.896,52.729L40.354,69.521L23.458,75.021C15.625,77.563 11.354,85.979 13.896,93.792C16.438,101.625 24.854,105.896 32.667,103.354L49.563,97.854L60.479,131.417L43.542,136.896C35.708,139.438 31.438,147.854 33.979,155.667C36.521,163.5 44.938,167.771 52.75,165.229L69.646,159.729L75.104,176.521C77.646,184.354 86.063,188.625 93.875,186.083C101.708,183.542 105.979,175.125 103.438,167.313L97.979,150.521L131.542,139.604L137,156.396C139.542,164.229 147.958,168.5 155.771,165.958C163.604,163.417 167.875,155 165.333,147.188L159.917,130.417L176.583,125C184.396,122.479 188.688,114.063 186.146,106.229ZM88.792,122.208L77.875,88.646L111.458,77.729L122.375,111.292L88.792,122.208Z" style="fill-rule:nonzero;"/>
    </g>
</svg>
