<?xml version="1.0" encoding="UTF-8" standalone="no"?>
<!DOCTYPE svg PUBLIC "-//W3C//DTD SVG 1.1//EN" "http://www.w3.org/Graphics/SVG/1.1/DTD/svg11.dtd">
<svg width="100%" height="100%" viewBox="0 0 24 24" version="1.1" xmlns="http://www.w3.org/2000/svg" xmlns:xlink="http://www.w3.org/1999/xlink" xml:space="preserve" xmlns:serif="http://www.serif.com/" style="fill-rule:evenodd;clip-rule:evenodd;stroke-linejoin:round;stroke-miterlimit:2;">
    <g id="layer">
        <path id="shape" d="M7.261,14.638C7.261,13.482 8.205,12.537 9.362,12.537C10.518,12.537 11.463,13.482 11.463,14.638L11.463,19.899C11.463,21.055 10.518,22 9.362,22C8.205,22 7.261,21.055 7.261,19.899L7.261,14.638ZM14.638,17.798C15.795,17.798 16.739,18.743 16.739,19.899C16.739,21.055 15.795,22 14.638,22C13.482,22 12.537,21.055 12.537,19.899L12.537,17.798L14.638,17.798ZM6.202,14.638C6.202,15.795 5.257,16.739 4.101,16.739C2.945,16.739 2,15.795 2,14.638C2,13.482 2.945,12.537 4.101,12.537L6.202,12.537L6.202,14.638ZM19.899,12.537C21.055,12.537 22,13.482 22,14.638C22,15.795 21.055,16.739 19.899,16.739L14.638,16.739C13.482,16.739 12.537,15.795 12.537,14.638C12.537,13.482 13.482,12.537 14.638,12.537L19.899,12.537ZM9.362,7.261C10.518,7.261 11.463,8.205 11.463,9.362C11.463,10.518 10.518,11.463 9.362,11.463L4.101,11.463C2.945,11.463 2,10.518 2,9.362C2,8.205 2.945,7.261 4.101,7.261L9.362,7.261ZM17.798,9.362C17.798,8.205 18.743,7.261 19.899,7.261C21.055,7.261 22,8.205 22,9.362C22,10.518 21.055,11.463 19.899,11.463L17.798,11.463L17.798,9.362ZM16.739,9.362C16.739,10.518 15.795,11.463 14.638,11.463C13.482,11.463 12.537,10.518 12.537,9.362L12.537,4.101C12.537,2.945 13.482,2 14.638,2C15.795,2 16.739,2.945 16.739,4.101L16.739,9.362ZM9.362,6.202C8.205,6.202 7.261,5.257 7.261,4.101C7.261,2.945 8.205,2 9.362,2C10.518,2 11.463,2.945 11.463,4.101L11.463,6.202L9.362,6.202Z" style="fill-rule:nonzero;"/>
    </g>
</svg>
