<?xml version="1.0" encoding="UTF-8" standalone="no"?>
<!DOCTYPE svg PUBLIC "-//W3C//DTD SVG 1.1//EN" "http://www.w3.org/Graphics/SVG/1.1/DTD/svg11.dtd">
<svg width="100%" height="100%" viewBox="0 0 24 24" version="1.1" xmlns="http://www.w3.org/2000/svg" xmlns:xlink="http://www.w3.org/1999/xlink" xml:space="preserve" xmlns:serif="http://www.serif.com/" style="fill-rule:evenodd;clip-rule:evenodd;stroke-linejoin:round;stroke-miterlimit:2;">
    <g transform="matrix(1,0,0,1,3.57406,2)">
        <g id="layer">
            <path id="shape" d="M14.216,12.892L15.993,12.892L15.993,20L0,20L0,12.892L1.777,12.892L1.777,18.223L14.216,18.223L14.216,12.892ZM3.554,16.446L12.439,16.446L12.439,14.669L3.554,14.669L3.554,16.446ZM3.713,12.364L12.441,14.198L12.808,12.454L4.08,10.619L3.713,12.364ZM4.868,8.185L12.953,11.95L13.706,10.333L5.621,6.568L4.868,8.185ZM7.105,4.219L13.959,9.926L15.101,8.556L8.247,2.848L7.105,4.219ZM11.529,-0L10.098,1.065L15.421,8.221L16.852,7.156L11.529,-0Z"/>
        </g>
    </g>
</svg>
