<?xml version="1.0" encoding="UTF-8" standalone="no"?>
<!DOCTYPE svg PUBLIC "-//W3C//DTD SVG 1.1//EN" "http://www.w3.org/Graphics/SVG/1.1/DTD/svg11.dtd">
<svg width="100%" height="100%" viewBox="0 0 24 24" version="1.1" xmlns="http://www.w3.org/2000/svg" xmlns:xlink="http://www.w3.org/1999/xlink" xml:space="preserve" xmlns:serif="http://www.serif.com/" style="fill-rule:evenodd;clip-rule:evenodd;stroke-linejoin:round;stroke-miterlimit:2;">
    <g transform="matrix(0.114304,0,0,0.115216,0.579231,0.56356)">
        <g id="layer">
            <path id="shape" d="M56.447,117.654C55.563,118.813 54.683,119.973 53.828,121.152C51.797,123.945 50.117,126.875 50.332,130.527C50.352,130.82 50.059,131.23 49.805,131.445C46.133,134.609 41.934,136.484 37.051,136.777C36.719,136.797 36.367,136.836 35.859,136.895C36.309,138.574 36.738,140.156 37.227,141.934C32.715,142.168 30.254,145.801 26.875,148.34C25.547,146.172 24.316,144.16 23.008,141.992C25.625,141.465 27.266,139.707 29.063,138.184C30.82,136.68 32.773,135.762 35.117,135.859C35.254,135.859 35.41,135.801 35.645,135.762C35.41,134.316 35.254,132.891 34.902,131.504C34.824,131.211 34.102,130.918 33.652,130.918C30.781,130.938 28.477,132.285 26.289,134.004C24.98,135.039 23.516,135.879 22.07,136.738C21.133,137.305 20.449,137.051 20.039,135.977C19.316,134.121 18.516,132.324 17.676,130.293C21.758,130.371 24.59,127.969 27.617,125.977C29.551,124.707 31.719,123.926 34.199,123.906L34.199,118.125C31.582,118.008 29.219,118.809 26.992,120.059C25.02,121.152 23.203,122.539 21.152,123.477C19.746,124.121 18.066,124.238 16.504,124.531C16.25,124.57 15.723,124.277 15.664,124.043C15.098,121.953 14.609,119.844 14.063,117.598C18.711,118.184 22.441,116.23 26.074,113.965C28.828,112.246 31.738,110.937 35.098,110.859C35.586,108.672 36.055,106.523 36.563,104.336C33.223,104.004 30.313,105.039 27.48,106.484C24.727,107.891 22.012,109.375 19.16,110.547C17.441,111.27 15.527,111.504 13.652,110.977C13.359,110.898 12.969,110.547 12.949,110.273C12.734,108.535 12.617,106.777 12.461,104.922L15,104.922C18.574,104.902 21.777,103.594 24.883,101.953C27.793,100.43 30.586,98.633 33.887,98.047C35.273,97.793 36.699,97.812 38.105,97.656C38.418,97.617 38.867,97.461 38.984,97.227C40.039,95.039 41.055,92.812 42.148,90.449C41.602,90.352 41.055,90.254 40.508,90.195C35.645,89.707 31.328,91.309 27.148,93.574C23.984,95.293 20.801,96.992 17.148,97.422C15.82,97.578 14.473,97.52 13.125,97.539C12.344,97.559 12.422,96.992 12.441,96.484C12.598,94.16 12.656,91.816 12.949,89.492C13.652,83.789 14.863,78.184 16.66,72.734C19.688,63.535 24.102,55.039 29.961,47.305C38.828,35.586 49.961,26.641 63.281,20.449C70.293,17.207 77.617,15 85.234,13.672C91.934,12.5 98.672,12.266 105.41,12.617C113.262,13.027 120.937,14.609 128.398,17.187C138.438,20.645 147.539,25.762 155.703,32.52C165.605,40.703 173.32,50.605 178.887,62.168C182.383,69.414 184.824,76.992 186.133,84.902C186.758,88.672 186.973,92.5 187.383,96.309C187.5,97.285 187.09,97.52 186.152,97.578C182.207,97.773 178.613,96.66 175.156,94.883C171.602,93.027 168.105,90.977 164.063,90.332C161.934,90 159.805,90.078 157.578,90.41C158.77,92.93 159.863,95.273 161.035,97.734C166.035,97.09 170.273,99.414 174.512,101.738C178.301,103.828 182.246,105.254 186.68,104.824C186.855,104.805 187.051,104.863 187.266,104.902C187.129,106.621 187.012,108.301 186.875,109.961C186.836,110.527 186.641,110.898 185.938,111.016C183.164,111.445 180.586,110.801 178.145,109.609C175.84,108.496 173.633,107.168 171.367,106.016C168.848,104.727 166.172,103.984 163.203,104.297C163.652,106.328 164.063,108.34 164.531,110.312C164.59,110.527 164.922,110.801 165.137,110.82C169.102,110.977 172.285,113.105 175.527,115.02C178.594,116.836 181.816,117.93 185.684,117.598C185.098,119.961 184.531,122.227 183.984,124.453C181.172,124.805 178.867,123.848 176.68,122.48C174.238,120.957 171.934,119.199 169.063,118.535C167.949,118.281 166.816,118.164 165.566,117.969L165.566,123.887C168.77,123.906 171.387,125.352 173.887,127.129C176.27,128.828 178.75,130.312 182.09,130.273C181.113,132.559 180.234,134.648 179.277,136.719C179.199,136.895 178.555,137.031 178.301,136.914C177.168,136.406 176.016,135.859 174.961,135.176C174.388,134.8 173.838,134.386 173.291,133.968L172.822,133.61C172.275,133.192 171.725,132.778 171.152,132.402C169.629,131.387 167.871,130.957 166.035,130.859C165.254,130.82 164.766,130.937 164.707,131.953C164.648,133.203 164.297,134.414 164.063,135.742C165.039,135.879 165.996,135.918 166.895,136.113C168.789,136.543 170.234,137.754 171.641,139.023C173.086,140.332 174.57,141.602 176.719,141.973C175.43,144.102 174.199,146.133 172.871,148.32C171.973,147.578 171.133,146.973 170.41,146.289C168.164,144.16 165.859,142.187 162.5,141.934C162.969,140.215 163.379,138.652 163.828,136.992C162.246,136.758 160.762,136.602 159.336,136.289C155.703,135.508 152.539,133.809 149.766,131.348C149.57,131.172 149.375,130.84 149.395,130.586C149.609,126.27 147.285,123.027 144.922,119.785C142.93,117.07 140.859,114.414 138.945,111.641C137.168,109.062 137.754,106.191 138.398,103.418C139.063,100.527 140.039,97.695 140.586,94.766C142.422,84.961 139.473,76.641 132.441,69.687C131.875,69.141 131.23,68.652 130.43,68.32C130.84,68.887 131.25,69.434 131.66,70.02C134.57,74.16 136.816,78.594 137.598,83.672C138.34,88.496 137.461,93.086 136.055,97.676C135.234,100.371 134.551,103.125 134.102,105.898C133.418,109.922 135.215,113.262 137.559,116.367C139.297,118.691 141.094,120.996 142.773,123.359C144.141,125.293 145.117,127.422 145.313,129.805C145.508,132.051 144.961,134.219 144.102,136.289C143.32,138.145 142.383,139.961 141.465,141.758C141.133,142.422 141.133,142.832 141.758,143.379C145.547,146.719 149.727,149.297 154.766,150.273C155.801,150.469 156.934,150.547 157.949,150.352C158.594,150.234 159.219,149.57 159.668,149.023C160.059,148.535 160.293,147.871 160.449,147.246C160.723,146.172 161.504,145.996 162.285,146.367C163.711,147.051 165.176,147.754 166.367,148.77C167.598,149.844 168.516,151.289 169.688,152.715C168.691,153.945 167.285,155.703 165.801,157.539C164.902,156.543 164.16,155.547 163.242,154.766C162.031,153.73 160.684,152.832 159.375,151.934C158.75,151.504 158.262,151.68 157.91,152.422C157.5,153.281 157.012,154.102 156.504,155.039C159.316,156.133 161.074,158.301 162.813,160.781C161.152,162.383 159.492,163.965 157.91,165.469C156.309,163.73 154.746,162.051 153.105,160.254C152.168,161.426 151.445,162.344 150.801,163.164C152.148,164.785 153.457,166.348 154.883,168.066C152.656,169.707 150.645,171.191 148.496,172.754C148.184,171.738 148.066,170.801 147.637,170.059C146.191,167.539 144.727,165.039 143.105,162.637C141.387,160.059 139.453,157.637 138.457,154.629C137.871,152.852 137.637,151.055 138.027,149.219C138.086,148.965 138.027,148.691 138.027,148.203C135.996,151.309 135.195,154.512 136.543,157.793C137.773,160.781 139.453,163.594 141.035,166.406C142.363,168.77 143.75,171.113 144.355,173.789C144.57,174.707 144.492,175.352 143.477,175.82C142.227,176.387 141.074,177.129 139.688,177.91C139.551,177.148 139.473,176.543 139.355,175.937C138.496,171.621 136.23,167.91 134.336,164.023C133.418,162.168 132.539,160.312 131.738,158.418C130.469,155.391 130.547,152.344 132.051,149.434C133.477,146.68 135.098,144.023 136.66,141.348C138.301,138.574 139.902,135.801 140.449,132.559C140.879,129.98 140.703,127.422 139.355,125.234C137.441,122.148 135.254,119.238 133.145,116.27C131.484,113.926 129.59,111.621 129.492,108.633C129.414,106.562 129.648,104.414 130.176,102.422C131.016,99.18 132.422,96.074 133.223,92.812C135.879,82.031 132.871,72.949 124.57,65.605C124.102,65.195 123.516,64.922 122.871,64.746C123.965,66.309 125.117,67.812 126.113,69.414C131.074,77.48 131.387,85.918 128.027,94.629C126.797,97.793 125.605,100.957 125.02,104.355C124.238,108.906 125.391,112.832 128.086,116.426C130.02,119.004 132.031,121.504 133.828,124.18C136.484,128.086 136.484,132.285 134.316,136.367C132.559,139.668 130.449,142.793 128.535,146.016C126.777,148.965 125.332,152.031 125.566,155.605C125.762,158.652 127.09,161.328 128.438,164.004C130.156,167.422 131.973,170.781 133.535,174.258C134.238,175.82 134.414,177.637 134.746,179.355C134.805,179.668 134.609,180.273 134.375,180.371C132.637,181.133 130.859,181.816 129.141,182.52C128.848,180.547 128.848,178.633 128.242,176.914C127.129,173.789 125.703,170.781 124.336,167.754C123.301,165.449 122.109,163.203 121.016,160.937C119.043,156.855 119.355,152.832 121.563,148.965C123.184,146.152 124.98,143.437 126.719,140.684C128.32,138.145 129.727,135.527 130.254,132.539C130.918,128.75 129.707,125.43 127.5,122.402C125.938,120.273 124.258,118.223 122.656,116.113C119.043,111.367 118.809,106.152 120.742,100.762C121.973,97.305 123.555,93.984 124.824,90.547C128.125,81.68 125.371,70.684 118.32,64.316C117.983,64.016 117.641,63.721 117.297,63.428L116.609,62.842C116.265,62.548 115.923,62.253 115.586,61.953L115.176,62.246C115.41,62.715 115.586,63.242 115.898,63.672C118.359,66.836 120.078,70.332 120.977,74.238C122.402,80.469 121.465,86.367 118.848,92.129C117.324,95.488 115.898,98.926 114.766,102.441C112.871,108.301 114.316,113.613 118.086,118.379C119.414,120.059 120.742,121.758 121.973,123.516C124.883,127.676 125.039,132.09 122.695,136.484C121.055,139.551 119.063,142.402 117.207,145.352C115.352,148.281 113.691,151.25 113.32,154.805C113.027,157.656 113.77,160.293 114.902,162.812C116.445,166.309 118.223,169.687 119.824,173.164C121.211,176.211 122.227,179.375 122.129,182.793C122.09,184.609 122.07,184.629 120.313,185.059C118.848,185.41 117.363,185.703 115.859,186.035L115.859,182.91C115.898,179.492 115.117,176.211 113.789,173.105C112.266,169.551 110.605,166.055 108.926,162.578C106.367,157.305 107.148,152.363 110.215,147.578C112.461,144.062 114.746,140.566 116.895,136.992C118.027,135.117 118.711,133.027 118.789,130.801C118.906,127.051 117.168,124.043 114.883,121.25C113.047,118.984 111.172,116.738 110.215,113.926C109.941,113.105 109.707,112.246 109.57,111.387C109.297,109.648 108.32,108.945 106.621,109.316C104.844,109.727 103.066,110.352 101.27,110.449C99.316,110.547 97.344,110.176 95.391,109.922C94.609,109.824 93.848,109.512 93.066,109.316C91.68,108.984 90.566,109.59 90.391,111.016C89.922,114.648 87.949,117.461 85.801,120.234C84.434,122.012 83.086,123.867 82.09,125.879C80.156,129.805 81.055,133.672 83.105,137.285C84.512,139.785 86.23,142.109 87.715,144.57C89.121,146.934 90.586,149.277 91.68,151.797C93.32,155.625 92.402,159.375 90.742,163.008C89.063,166.68 87.305,170.332 85.742,174.062C84.297,177.5 83.73,181.113 84.102,184.844C84.141,185.176 84.102,185.527 84.102,186.055C82.148,185.605 80.273,185.273 78.477,184.727C78.125,184.629 77.832,183.77 77.793,183.242C77.578,180.645 78.047,178.105 79.063,175.723C80.488,172.344 82.227,169.102 83.652,165.742C84.746,163.145 85.82,160.508 86.445,157.773C87.168,154.551 86.172,151.445 84.551,148.633C82.949,145.84 81.035,143.242 79.434,140.449C78.203,138.32 76.992,136.113 76.152,133.789C74.883,130.254 75.586,126.836 77.734,123.77C79.395,121.387 81.191,119.082 82.891,116.719C86.113,112.168 86.719,107.148 84.98,101.973C83.613,97.93 81.816,94.023 80.215,90.059C76.777,81.523 77.754,73.398 82.539,65.645C83.047,64.824 83.672,64.102 84.199,63.301C84.395,62.988 84.414,62.598 84.531,62.227C84.199,62.344 83.828,62.363 83.574,62.559C79.043,66.074 75.996,70.605 74.473,76.152C72.715,82.617 73.906,88.711 76.641,94.648C78.066,97.734 79.414,100.84 80.02,104.219C80.781,108.457 79.941,112.285 77.402,115.723C75.625,118.125 73.77,120.469 72.012,122.871C70.469,124.98 69.531,127.363 69.414,129.98C69.297,132.559 70,135.02 71.27,137.246C73.223,140.625 75.313,143.906 77.344,147.246C78.73,149.512 79.844,151.895 80.098,154.59C80.313,156.895 79.688,159.082 78.73,161.133C77.285,164.238 75.664,167.285 74.121,170.352C72.285,174.043 70.742,177.812 70.938,182.07C70.938,182.168 70.879,182.266 70.801,182.5C69.004,181.777 67.207,181.152 65.488,180.332C65.195,180.195 64.98,179.316 65.098,178.887C65.742,176.504 66.289,174.062 67.285,171.816C68.848,168.32 70.742,164.98 72.5,161.602C75.117,156.543 74.668,151.641 71.777,146.875C70.41,144.609 68.945,142.402 67.559,140.156C65.898,137.48 64.395,134.746 64.004,131.523C63.73,129.219 64.16,127.031 65.371,125.156C67.168,122.363 69.238,119.746 71.191,117.051C72.715,114.941 74.199,112.773 74.707,110.156C75.352,106.836 74.883,103.594 73.828,100.43C72.773,97.285 71.465,94.199 70.586,91.016C68.105,82.109 69.922,73.984 75.508,66.68C76.035,65.977 76.563,65.273 77.109,64.57C77.095,64.551 77.079,64.53 77.062,64.509L76.961,64.378C76.945,64.357 76.929,64.336 76.914,64.316C75.82,65.195 74.629,65.996 73.633,66.992C67.773,72.812 65.137,79.902 65.684,88.125C65.938,91.914 67.227,95.449 68.535,98.965C69.492,101.543 70.254,104.18 70.391,106.973C70.488,109.355 69.863,111.543 68.516,113.457C66.66,116.094 64.609,118.574 62.813,121.25C61.602,123.047 60.488,124.961 59.727,126.953C58.496,130.195 59.043,133.477 60.566,136.484C62.168,139.648 64.082,142.656 65.82,145.762C66.66,147.266 67.461,148.789 68.145,150.371C69.551,153.672 68.867,156.895 67.402,159.98C65.605,163.75 63.652,167.422 61.953,171.23C61.055,173.262 60.566,175.488 59.844,177.754C58.516,177.012 57.031,176.27 55.664,175.332C55.352,175.117 55.293,174.16 55.488,173.672C56.387,171.445 57.266,169.199 58.398,167.09C60.059,163.965 62.266,161.133 63.32,157.676C64.375,154.219 63.672,151.074 61.66,148.125C62.891,153.164 60.547,157.109 57.852,160.957C55.801,163.867 53.457,166.582 52.148,169.961C51.836,170.781 51.621,171.621 51.328,172.559C51.055,172.422 50.781,172.344 50.547,172.168C49.954,171.736 49.363,171.301 48.773,170.865L47.594,169.994C47.004,169.558 46.414,169.124 45.82,168.691C45.195,168.223 45.137,167.754 45.625,167.168C46.66,165.938 47.734,164.648 48.926,163.203C48.301,162.402 47.598,161.504 46.855,160.527C44.727,161.68 43.457,163.672 41.914,165.586C40.254,163.984 38.613,162.441 36.914,160.801C38.613,158.438 40.332,156.211 43.242,155.098C42.656,154.043 42.129,153.008 41.504,152.031C41.387,151.855 40.82,151.855 40.527,151.953C38.594,152.637 37.168,154.023 35.801,155.508C35.195,156.152 34.629,156.836 33.945,157.598C32.5,155.801 31.094,154.082 29.473,152.09C31.797,150.293 34.063,148.516 36.348,146.758C36.602,146.563 36.973,146.504 37.305,146.406C38.281,146.113 39.023,146.23 39.297,147.402C39.414,147.871 39.688,148.32 39.902,148.77C40.566,150.234 41.133,150.547 42.773,150.508C46.543,150.43 49.863,149.023 52.988,147.109C54.766,145.996 56.367,144.609 58.066,143.359C58.652,142.93 58.633,142.5 58.301,141.895C56.855,139.199 55.469,136.484 54.746,133.477C53.965,130.273 54.453,127.285 56.27,124.609C58.379,121.465 60.684,118.457 62.91,115.371C64.941,112.539 66.27,109.434 65.625,105.918C65.039,102.695 64.141,99.531 63.262,96.387C62.324,93.047 61.602,89.688 61.816,86.211C62.148,80.84 64.082,75.957 67.051,71.504C67.734,70.488 68.438,69.512 68.965,68.32C68.242,68.887 67.461,69.395 66.836,70.039C62.266,74.824 59.336,80.391 58.652,87.07C58.164,91.836 59.336,96.328 60.586,100.84C61.172,102.93 61.582,105.078 61.875,107.227C62.188,109.492 61.094,111.406 59.824,113.164C58.97,114.343 58.089,115.504 57.205,116.662L56.447,117.654ZM116.719,71.25C116.563,70.664 116.504,70.215 116.348,69.824C115.098,66.699 112.891,64.414 110.02,62.773C104.863,59.824 99.355,59.316 93.73,61.016C89.16,62.402 85.508,65.059 83.516,69.59C83.301,70.078 83.223,70.625 83.066,71.25C84.512,70.937 85.703,70.547 86.934,70.43C88.223,70.312 89.531,70.352 90.82,70.469C94.59,70.82 96.699,72.832 97.148,76.562C97.363,78.301 97.188,80.039 96.543,81.777C96.23,81.641 96.035,81.602 95.898,81.504C94.395,80.273 92.852,80.293 91.074,80.957C89.375,81.582 87.637,81.465 85.957,80.586C84.453,79.805 83.184,80.352 82.93,82.012C82.695,83.535 82.656,85.156 82.93,86.68C84.18,93.945 87.754,99.824 93.965,103.945C95.957,105.254 98.223,105.938 100.625,105.703C103.926,105.391 106.641,103.77 108.965,101.504C113.438,97.148 116.23,91.875 117.031,85.664C117.188,84.414 117.031,83.047 116.738,81.797C116.367,80.254 115.332,79.961 113.945,80.684C113.418,80.957 112.773,81.211 112.207,81.191C110.859,81.113 109.473,81.016 108.184,80.664C106.523,80.215 106.016,80.332 105.273,81.895C105.098,82.266 104.961,82.695 104.707,83.008C104.395,83.398 103.984,83.691 103.516,84.121C102.168,80.742 102.129,77.539 103.008,74.336C103.184,73.691 103.633,72.988 104.16,72.559C106.66,70.586 109.551,69.902 112.695,70.371C113.945,70.586 115.195,70.918 116.719,71.25ZM106.855,93.77C102.52,100.078 97.656,100.762 93.125,94.004C93.379,93.926 93.633,93.75 93.848,93.789C98.086,94.57 102.363,94.258 106.855,93.77ZM62.227,67.988C54.746,65.215 47.891,66.309 41.328,70.176C40.195,64.355 37.559,59.512 32.93,55.879C32.461,55.508 31.777,55.41 31.191,55.195C31.055,55.762 30.762,56.328 30.781,56.875C31.055,62.031 29.98,66.934 27.949,71.621C25.41,77.48 21.699,82.578 17.5,87.363C16.602,88.379 15.723,89.395 14.746,90.527C17.266,91.348 19.59,91.152 21.777,90.332C25.098,89.082 28.32,87.598 31.621,86.25C35.684,84.59 39.844,83.77 44.16,85.039C45.098,85.313 45.527,85.039 46.016,84.316C49.219,79.688 52.949,75.547 57.285,71.934C58.887,70.625 60.469,69.395 62.227,67.988ZM184.98,90.469C184.609,90.039 184.297,89.707 184.004,89.355C181.367,86.074 178.555,82.91 176.172,79.453C171.465,72.637 168.516,65.195 168.984,56.719C169.004,56.23 168.77,55.723 168.652,55.234C168.105,55.41 167.461,55.449 167.012,55.762C163.984,57.988 161.738,60.898 160.273,64.336C159.492,66.172 158.926,68.105 158.242,70.078C151.777,66.27 144.961,65.234 137.52,68.008C138.027,68.398 138.359,68.652 138.672,68.906C140.215,70.156 141.816,71.348 143.32,72.656C147.305,76.152 150.84,80.098 153.848,84.473C154.238,85.039 154.551,85.195 155.332,85.059C157.188,84.727 159.102,84.473 160.996,84.512C164.668,84.57 167.93,86.152 171.23,87.578C173.828,88.691 176.445,89.766 179.121,90.625C180.996,91.211 182.969,91.23 184.98,90.469ZM97.852,88.184C99.199,88.105 100.547,88.027 101.895,87.969C102.168,87.949 102.48,87.949 102.695,88.066C103.203,88.359 103.652,88.711 104.121,89.043C103.691,89.316 103.281,89.57 102.852,89.844C100.527,91.289 98.281,90.566 96.094,89.531C95.938,89.453 95.84,88.711 95.938,88.652C96.504,88.301 97.148,88.086 97.754,87.813C97.793,87.93 97.813,88.047 97.852,88.184ZM84.395,77.227C87.324,75.098 90.371,76.23 93.73,77.012C93.242,76.211 93.047,75.664 92.676,75.293C90.605,73.223 88.027,72.871 85.273,73.262C84.434,73.379 83.633,73.77 83.398,74.707C83.164,75.684 83.477,76.523 84.395,77.227ZM115.41,77.207C117.148,75.508 116.816,73.848 114.629,73.34C112.188,72.773 109.863,73.125 107.793,74.707C107.031,75.293 106.816,75.918 107.266,76.816C110.02,76.152 112.813,75.137 115.41,77.207ZM59.277,46.582C63.105,51.563 66.289,56.504 68.828,61.855C69.59,63.438 69.844,63.477 71.465,62.754C73.691,61.758 75.918,60.742 78.203,59.941C84.16,57.852 90.293,56.719 96.602,56.367C101.543,56.094 106.406,56.484 111.25,57.285C117.324,58.301 123.105,60.215 128.633,62.871C129.961,63.516 130.254,63.32 130.937,62.031C132.617,58.945 134.277,55.84 136.074,52.832C137.324,50.742 138.828,48.809 140.352,46.621C134.238,47.07 128.906,49.023 124.004,52.812C125.859,47.539 128.34,42.813 131.348,38.164C123.613,39.043 116.875,41.602 111.348,47.051C110.078,43.789 108.848,40.664 107.676,37.52C107.578,37.227 107.871,36.641 108.164,36.387C110,34.707 111.895,33.086 113.75,31.445C114.473,30.801 115.156,30.117 115.996,29.316C115.566,29.238 115.391,29.18 115.215,29.16C112.051,28.926 108.867,28.633 105.703,28.516C104.707,28.477 104.316,28.086 103.984,27.266C102.676,24.102 101.289,20.977 99.883,17.695C99.629,18.223 99.414,18.594 99.258,18.965C98.027,21.816 96.777,24.648 95.586,27.52C95.312,28.164 95.02,28.457 94.258,28.496C91.992,28.574 89.746,28.77 87.48,28.945C86.289,29.043 85.098,29.16 83.887,29.277C83.857,29.321 83.828,29.362 83.799,29.403L83.74,29.484C83.711,29.524 83.682,29.565 83.652,29.609C83.906,29.766 84.199,29.863 84.414,30.059C86.797,32.168 89.18,34.277 91.582,36.387C92.051,36.797 92.168,37.187 91.914,37.793C91.367,39.102 90.918,40.43 90.41,41.758C89.746,43.496 89.062,45.215 88.34,47.07C82.773,41.602 76.035,39.062 68.34,38.184C71.328,42.832 73.848,47.5 75.645,52.812C70.801,48.984 65.488,47.031 59.277,46.582ZM90.625,49.902C93.691,47.559 96.758,45.215 99.883,42.813C102.969,45.176 106.035,47.539 109.121,49.902C109.043,50.02 108.984,50.156 108.906,50.273C102.871,49.199 96.816,49.277 90.781,50.254C90.723,50.156 90.684,50.02 90.625,49.902Z" style="fill-rule:nonzero;"/>
        </g>
    </g>
</svg>
