<?xml version="1.0" encoding="UTF-8" standalone="no"?>
<!DOCTYPE svg PUBLIC "-//W3C//DTD SVG 1.1//EN" "http://www.w3.org/Graphics/SVG/1.1/DTD/svg11.dtd">
<svg width="100%" height="100%" viewBox="0 0 24 24" version="1.1" xmlns="http://www.w3.org/2000/svg" xmlns:xlink="http://www.w3.org/1999/xlink" xml:space="preserve" xmlns:serif="http://www.serif.com/" style="fill-rule:evenodd;clip-rule:evenodd;stroke-linejoin:round;stroke-miterlimit:2;">
    <g transform="matrix(0.100001,0,0,0.100001,1.99583,1.99996)">
        <g id="layer">
            <path id="shape" d="M183.233,136.233C183.7,135.3 183.7,134.367 184.167,133.433C195.383,89.5 168.742,38.1 122.942,10.992C143.042,38.1 150.983,70.342 143.975,99.317C143.508,101.65 142.575,104.458 141.642,106.792C140.353,106.078 139.101,105.3 137.892,104.458C136.682,103.617 92.567,76.417 43.975,27.35C42.567,25.95 70.142,66.6 100.983,98.85C86.5,90.433 45.375,61 19.667,37.158C22.475,42.3 26.683,47.442 30.883,52.583C52.383,80.158 80.425,113.8 114.075,139.5C90.242,154 57.058,154.925 23.408,139.5C14.992,135.767 7.992,131.092 0.042,125.483C14.058,147.45 36.025,167.55 62.2,178.292C93.508,191.85 125.283,190.917 148.183,178.292L148.658,178.292C149.592,177.825 150.525,177.358 151.458,176.425C162.675,170.817 184.642,164.742 196.792,188.108C200.058,194.65 206.133,164.275 183.242,136.233L183.233,136.233Z" style="fill-rule:nonzero;"/>
        </g>
    </g>
</svg>
