<?xml version="1.0" encoding="UTF-8" standalone="no"?>
<!DOCTYPE svg PUBLIC "-//W3C//DTD SVG 1.1//EN" "http://www.w3.org/Graphics/SVG/1.1/DTD/svg11.dtd">
<svg width="100%" height="100%" viewBox="0 0 24 24" version="1.1" xmlns="http://www.w3.org/2000/svg" xmlns:xlink="http://www.w3.org/1999/xlink" xml:space="preserve" xmlns:serif="http://www.serif.com/" style="fill-rule:evenodd;clip-rule:evenodd;stroke-linejoin:round;stroke-miterlimit:2;">
    <g transform="matrix(0.114286,0,0,0.114286,0.571423,0.571027)">
        <g id="layer">
            <path id="shape" d="M29.8,68.969L19.85,84.338L38.181,95.762C38.181,95.762 50.394,102.05 44.537,113.831C39.131,125 12.5,149.413 12.5,149.413L36.35,164.381C52.875,128.331 51.787,133.131 55.906,120.156C60.163,106.975 61.106,96.862 53.875,89.531C44.612,80.163 43.588,79.275 29.8,68.969ZM42.844,63.181C51.513,63.181 58.537,56.856 58.537,49.056C58.537,41.206 51.512,34.863 42.844,34.863C34.106,34.863 27.131,41.213 27.131,49.056C27.138,56.863 34.106,63.181 42.844,63.181ZM184.569,64.931C184.569,64.931 179.356,24.356 91.162,49.475C94.969,42.869 96.737,38.6 96.737,38.6L74.719,32.362C74.719,32.362 65.825,61.587 49.956,75.188C49.956,75.188 65.331,84.125 65.175,83.869C69.575,79.438 73.544,74.919 76.912,70.55C80.456,68.975 83.844,67.538 87.137,66.181C83.025,73.581 76.5,84.65 69.894,91.656L79.156,99.837C79.156,99.837 85.5,93.7 92.406,86.325L100.275,86.325L100.275,99.962L69.575,99.962L69.575,110.875L100.275,110.875L100.275,136.987L99.106,136.938C95.725,136.769 90.469,136.206 88.375,132.919C85.894,128.9 87.737,121.594 87.844,117.05L66.631,117.05L65.869,117.487C65.869,117.487 58.087,152.531 88.269,151.763C116.506,152.531 132.7,143.806 140.475,137.8L143.569,149.419L160.981,142.069L149.2,113.05L135.056,117.481L137.662,127.406C134.087,130.15 129.906,132.181 125.419,133.694L125.419,110.869L155.344,110.869L155.344,99.956L125.419,99.956L125.419,86.319L155.462,86.319L155.462,75.419L102.044,75.419C105.894,70.694 108.912,66.337 109.712,63.637L100.375,61.075C140.356,46.612 162.625,49.112 162.45,72.781L162.45,135.05C162.45,135.05 164.8,156.425 140.475,154.913L127.3,152.069L124.231,164.656C124.231,164.656 181.038,181.05 185.688,137.031C190.338,93.031 184.569,64.931 184.569,64.931Z" style="fill-rule:nonzero;"/>
        </g>
    </g>
</svg>
