<?xml version="1.0" encoding="UTF-8" standalone="no"?>
<!DOCTYPE svg PUBLIC "-//W3C//DTD SVG 1.1//EN" "http://www.w3.org/Graphics/SVG/1.1/DTD/svg11.dtd">
<svg width="100%" height="100%" viewBox="0 0 24 24" version="1.1" xmlns="http://www.w3.org/2000/svg" xmlns:xlink="http://www.w3.org/1999/xlink" xml:space="preserve" xmlns:serif="http://www.serif.com/" style="fill-rule:evenodd;clip-rule:evenodd;stroke-linejoin:round;stroke-miterlimit:2;">
    <g transform="matrix(0.1,0,0,0.1,2,2)">
        <g id="layer">
            <path id="shape" d="M165.833,160L130,100L165.833,40L183.333,100L165.833,160ZM86.667,154.167L41.667,110L113.333,110L149.167,170L86.667,154.167ZM86.667,45L149.167,29.167L113.333,89.167L40.833,89.167C40.833,90 86.667,45 86.667,45ZM178.333,0L96.667,20.833L84.167,41.667L60,41.667L0,100L60,158.333L84.167,158.333L95.833,179.167L177.5,200L199.167,120.833L187.5,100L200,79.167L178.333,0Z" style="fill-rule:nonzero;"/>
        </g>
    </g>
</svg>
