<?xml version="1.0" encoding="UTF-8"?>
<!DOCTYPE svg PUBLIC "-//W3C//DTD SVG 1.1//EN" "http://www.w3.org/Graphics/SVG/1.1/DTD/svg11.dtd">
<svg version="1.1" xmlns="http://www.w3.org/2000/svg" xmlns:xlink="http://www.w3.org/1999/xlink" viewBox="0, 0, 24, 24">
  <g id="layer">
    <path d="M15.981,19.543 C16.771,19.543 17.279,19.402 17.971,19.169 C18.148,19.118 18.734,19.414 19.73,20.057 C19.803,20.094 19.877,20.087 19.952,20.037 C20.026,19.987 20.046,19.911 20.011,19.809 C19.743,18.936 19.667,18.452 19.783,18.356 C21.196,17.432 22,16.114 22,14.494 C22,11.706 19.305,9.445 15.981,9.445 C12.657,9.445 9.962,11.706 9.962,14.494 C9.962,17.283 12.657,19.543 15.981,19.543 z M16.289,8.995 C16.099,8.98 15.907,8.973 15.713,8.973 C12.242,8.973 9.427,11.334 9.427,14.246 C9.427,14.847 9.547,15.424 9.767,15.962 C9.576,15.974 9.384,15.981 9.189,15.981 C8.245,15.981 7.639,15.811 6.813,15.534 C6.601,15.472 5.9,15.826 4.711,16.595 C4.624,16.638 4.536,16.63 4.447,16.571 C4.358,16.511 4.334,16.42 4.375,16.298 C4.695,15.256 4.786,14.677 4.648,14.563 C2.96,13.459 2,11.885 2,9.95 C2,6.62 5.219,3.92 9.189,3.92 C12.772,3.92 15.743,6.118 16.289,8.995 z M17.971,13.723 C17.504,13.723 17.125,13.345 17.125,12.878 C17.125,12.411 17.504,12.032 17.971,12.032 C18.438,12.032 18.816,12.411 18.816,12.878 C18.816,13.345 18.438,13.723 17.971,13.723 z M13.941,13.723 C13.474,13.723 13.096,13.345 13.096,12.878 C13.096,12.411 13.474,12.032 13.941,12.032 C14.408,12.032 14.787,12.411 14.787,12.878 C14.787,13.345 14.408,13.723 13.941,13.723 z M6.813,9.029 C7.37,9.029 7.823,8.577 7.823,8.019 C7.823,7.461 7.37,7.009 6.813,7.009 C6.255,7.009 5.803,7.461 5.803,8.019 C5.803,8.577 6.255,9.029 6.813,9.029 z M11.625,9.029 C12.183,9.029 12.635,8.577 12.635,8.019 C12.635,7.461 12.183,7.009 11.625,7.009 C11.067,7.009 10.615,7.461 10.615,8.019 C10.615,8.577 11.067,9.029 11.625,9.029 z" fill="#000000" id="shape"/>
  </g>
</svg>
