<?xml version="1.0" encoding="UTF-8" standalone="no"?>
<!DOCTYPE svg PUBLIC "-//W3C//DTD SVG 1.1//EN" "http://www.w3.org/Graphics/SVG/1.1/DTD/svg11.dtd">
<svg width="100%" height="100%" viewBox="0 0 24 24" version="1.1" xmlns="http://www.w3.org/2000/svg" xmlns:xlink="http://www.w3.org/1999/xlink" xml:space="preserve" xmlns:serif="http://www.serif.com/" style="fill-rule:evenodd;clip-rule:evenodd;stroke-linejoin:round;stroke-miterlimit:2;">
    <g id="layer" transform="matrix(0.0951,0,0,0.0951,2,2.49711)">
        <path id="shape" d="M80.175,125.825C67.587,133.048 65.72,121.771 65.72,121.771L49.944,83.883C43.874,65.88 55.198,75.766 55.198,75.766C55.198,75.766 64.914,83.331 72.288,87.94C79.658,92.55 88.058,89.293 88.058,89.293L191.192,40.301C172.164,15.933 140.732,0 105.147,0C47.073,0 0,42.402 0,94.711C0,124.798 15.587,151.577 39.866,168.933L35.488,194.837C35.488,194.837 33.354,202.4 40.751,198.892C45.792,196.5 58.642,187.93 66.291,182.714C78.317,187.028 91.419,189.423 105.153,189.423C163.222,189.423 210.305,147.02 210.305,94.711C210.305,79.56 206.338,65.251 199.31,52.55C166.451,72.897 90.024,120.183 80.174,125.825L80.175,125.825Z" style="fill-rule:nonzero;"/>
    </g>
</svg>
