<?xml version="1.0" encoding="UTF-8"?>
<!DOCTYPE svg PUBLIC "-//W3C//DTD SVG 1.1//EN" "http://www.w3.org/Graphics/SVG/1.1/DTD/svg11.dtd">
<svg version="1.1" xmlns="http://www.w3.org/2000/svg" xmlns:xlink="http://www.w3.org/1999/xlink" viewBox="0, 0, 24, 24">
  <g id="layer">
    <path d="M10.734,12.718 C9.157,12.308 7.377,13.093 6.692,14.481 C5.995,15.898 6.669,17.47 8.261,17.984 C9.91,18.516 11.854,17.701 12.53,16.171 C13.194,14.676 12.363,13.139 10.734,12.718 z M9.53,16.333 C9.21,16.845 8.523,17.067 8.007,16.833 C7.498,16.602 7.347,16.007 7.669,15.509 C7.986,15.014 8.648,14.792 9.16,15.007 C9.678,15.227 9.845,15.817 9.53,16.333 z M10.583,14.979 C10.467,15.178 10.21,15.273 10.011,15.19 C9.815,15.109 9.752,14.887 9.863,14.692 C9.979,14.498 10.224,14.405 10.421,14.481 C10.622,14.556 10.694,14.78 10.583,14.979 z M18.326,10.414 C18.673,10.526 19.044,10.336 19.157,9.991 C19.43,9.144 19.259,8.176 18.62,7.468 C17.981,6.759 17.037,6.489 16.166,6.674 C15.81,6.75 15.583,7.1 15.659,7.456 C15.736,7.81 16.085,8.04 16.442,7.961 C16.868,7.871 17.328,8.002 17.643,8.347 C17.956,8.695 18.041,9.167 17.905,9.581 C17.791,9.931 17.979,10.301 18.326,10.414 z M20.636,5.646 C19.324,4.19 17.386,3.635 15.597,4.014 C15.183,4.102 14.919,4.509 15.009,4.924 C15.097,5.338 15.504,5.602 15.919,5.514 C17.192,5.243 18.567,5.639 19.502,6.674 C20.435,7.708 20.687,9.12 20.289,10.357 C20.159,10.759 20.379,11.19 20.782,11.322 C21.185,11.451 21.615,11.232 21.745,10.831 C22.303,9.083 21.951,7.1 20.636,5.646 z M17.023,11.699 C16.74,11.616 16.548,11.558 16.696,11.188 C17.016,10.384 17.048,9.69 16.703,9.197 C16.055,8.269 14.278,8.32 12.241,9.171 C12.241,9.171 11.602,9.452 11.764,8.945 C12.076,7.938 12.03,7.095 11.541,6.607 C10.437,5.5 7.5,6.648 4.979,9.167 C3.095,11.053 2,13.053 2,14.782 C2,18.09 6.241,20.102 10.391,20.102 C15.831,20.102 19.449,16.942 19.449,14.431 C19.449,12.914 18.171,12.056 17.023,11.699 z M10.403,18.917 C7.092,19.243 4.234,17.748 4.018,15.572 C3.803,13.398 6.315,11.37 9.625,11.044 C12.935,10.715 15.794,12.213 16.009,14.387 C16.222,16.56 13.713,18.588 10.403,18.917 z" fill="#000000" id="shape"/>
  </g>
</svg>
