<?xml version="1.0" encoding="UTF-8" standalone="no"?>
<!DOCTYPE svg PUBLIC "-//W3C//DTD SVG 1.1//EN" "http://www.w3.org/Graphics/SVG/1.1/DTD/svg11.dtd">
<svg width="100%" height="100%" viewBox="0 0 24 24" version="1.1" xmlns="http://www.w3.org/2000/svg" xmlns:xlink="http://www.w3.org/1999/xlink" xml:space="preserve" xmlns:serif="http://www.serif.com/" style="fill-rule:evenodd;clip-rule:evenodd;stroke-linejoin:round;stroke-miterlimit:2;">
    <g id="layer" transform="matrix(0.136352,0,0,0.136352,-1.64326,-1.62674)">
        <path id="shape" d="M110.293,44.941L110.293,156.836L122.012,156.836L126.934,170.781L147.715,156.836L173.398,156.836L173.398,44.941L110.293,44.941ZM158.672,142.012L146.973,142.012L132.305,151.855L128.828,142.012L125.313,142.012L125.313,60.215L158.652,60.215L158.652,142.012L158.672,142.012ZM102.754,95.098L76.816,95.098C77.227,86.328 77.656,74.727 78.105,61.328L103.672,61.328L103.652,59.746C103.652,59.629 103.613,56.875 103.203,54.062C102.793,51.133 101.914,47.246 99.102,47.246L56.211,47.246C57.07,43.223 59.277,33.633 61.953,28.926L63.203,26.738L60.684,26.602C60.527,26.602 56.855,26.426 52.598,28.672C45.625,32.383 42.5,39.688 41.133,45.156C37.539,59.434 32.422,69.355 30.254,73.594C29.609,74.844 29.219,75.586 29.043,76.094C28.691,77.051 28.887,78.008 29.59,78.633C31.641,80.488 37.051,78.066 37.109,78.047C37.227,77.988 37.363,77.93 37.539,77.852C40.254,76.621 48.301,72.969 51.172,61.348L62.246,61.348C62.383,67.637 62.852,88.379 62.813,95.117L35.273,95.117L34.863,95.41C30.352,98.711 28.906,107.754 28.848,108.145L28.574,109.941L61.191,109.941C58.789,125.234 56.016,132.09 54.551,134.824C53.828,136.191 53.125,137.559 52.461,138.887C48.301,147.129 43.984,155.645 27.793,168.887C27.09,169.434 26.426,170.449 26.855,171.563C27.324,172.793 28.672,173.34 31.66,173.34C32.715,173.34 33.965,173.281 35.449,173.145C45.195,172.285 55.137,169.629 61.836,156.035C65.156,149.18 68.027,142.031 70.41,134.766L97.07,166.016L98.047,163.672C98.203,163.301 101.758,154.629 99.043,144.941L98.945,144.59L77.832,120.566L73.535,123.809C74.785,118.711 75.605,114.063 75.977,109.922L106.973,109.922L106.973,108.359C106.973,100.527 103.359,95.879 103.223,95.684L102.754,95.098Z" style="fill-rule:nonzero;"/>
    </g>
</svg>
