<?xml version="1.0" encoding="UTF-8"?>
<!DOCTYPE svg PUBLIC "-//W3C//DTD SVG 1.1//EN" "http://www.w3.org/Graphics/SVG/1.1/DTD/svg11.dtd">
<svg version="1.1" xmlns="http://www.w3.org/2000/svg" xmlns:xlink="http://www.w3.org/1999/xlink" viewBox="0, 0, 24, 24">
  <g id="layer">
    <path d="M16.098,6.788 C17.771,6.915 19.041,7.577 19.879,8.778 C18.38,9.689 17.637,10.925 17.646,12.564 C17.646,12.648 17.49,15.295 20.401,16.667 C19.858,18.312 17.993,21.963 15.822,21.994 C14.567,21.994 13.832,21.196 12.411,21.196 C10.947,21.196 10.152,21.968 9.026,21.994 C6.875,22.059 4.813,18.042 4.241,16.403 C3.813,15.158 3.599,13.949 3.599,12.778 C3.599,8.817 6.245,6.87 8.736,6.831 C9.942,6.831 11.476,7.711 12.147,7.711 C12.781,7.711 14.514,6.663 16.098,6.788 z M16.192,2 C16.228,2.474 16.339,3.791 15.12,5.238 C14.245,6.259 13.183,6.858 12.019,6.769 C11.921,5.536 12.38,4.442 13.161,3.558 C13.87,2.733 15.115,2.062 16.192,2 z" fill="#000000" id="shape"/>
  </g>
</svg>
