<?xml version="1.0" encoding="UTF-8" standalone="no"?>
<!DOCTYPE svg PUBLIC "-//W3C//DTD SVG 1.1//EN" "http://www.w3.org/Graphics/SVG/1.1/DTD/svg11.dtd">
<svg width="100%" height="100%" viewBox="0 0 24 24" version="1.1" xmlns="http://www.w3.org/2000/svg" xmlns:xlink="http://www.w3.org/1999/xlink" xml:space="preserve" xmlns:serif="http://www.serif.com/" style="fill-rule:evenodd;clip-rule:evenodd;stroke-linejoin:round;stroke-miterlimit:2;">
    <g id="layer" transform="matrix(0.416667,0,0,0.416667,1.98718,2)">
        <path id="shape" d="M8.943,25.395C13.962,24.271 13.437,18.054 13.288,16.705C12.988,14.533 10.516,10.937 7.37,11.237C3.324,11.536 2.575,17.754 2.575,17.754C1.976,20.526 3.849,26.594 8.943,25.395ZM14.411,36.257C14.261,36.707 13.962,37.83 14.261,38.879C14.861,41.052 16.734,41.201 16.734,41.201L19.355,41.201L19.355,34.534L16.584,34.534C15.31,34.834 14.561,35.808 14.411,36.257ZM18.457,14.907C21.228,14.907 23.476,11.611 23.476,7.416C23.476,3.221 21.228,0 18.457,0C15.685,0 13.437,3.296 13.437,7.491C13.363,11.536 15.685,14.907 18.457,14.907ZM30.592,15.432C34.338,15.881 36.81,11.836 37.259,8.615C37.709,5.469 35.237,1.798 32.615,1.273C29.843,0.524 26.547,5.019 26.247,7.941C26.098,11.387 26.847,14.907 30.592,15.432ZM39.806,33.785C39.806,33.785 33.888,29.141 30.592,24.122C25.948,16.78 19.505,19.627 17.183,23.372C15.011,27.118 11.565,29.59 11.115,30.189C10.666,30.939 4.073,34.534 5.497,41.052C6.92,47.719 12.164,47.569 12.164,47.569C12.164,47.569 15.91,47.869 20.404,46.82C24.899,45.771 28.645,47.119 28.645,47.119C28.645,47.119 38.907,50.565 41.679,43.823C44.301,37.231 39.806,33.785 39.806,33.785ZM22.502,43.898L15.835,43.898C12.913,43.299 11.789,41.276 11.789,40.977C11.64,40.677 10.816,38.954 11.34,36.182C12.613,32.137 16.134,31.688 16.134,31.688L19.58,31.688L19.58,27.343L22.577,27.343L22.502,43.898ZM34.787,43.748L27.146,43.748C24.225,42.85 24.15,40.827 24.15,40.827L24.15,32.212L27.146,32.212L27.146,40.003C27.296,40.902 28.27,40.977 28.27,40.977L31.416,40.977L31.416,32.362L34.712,32.362L34.712,43.748L34.787,43.748ZM45.575,20.676C45.575,19.252 44.451,14.608 39.806,14.608C35.162,14.608 34.787,18.953 34.787,21.799C34.787,24.646 35.087,28.766 40.705,28.466C46.174,28.616 45.575,22.099 45.575,20.676Z" style="fill-rule:nonzero;"/>
    </g>
</svg>
