<?xml version="1.0" encoding="UTF-8" standalone="no"?>
<!DOCTYPE svg PUBLIC "-//W3C//DTD SVG 1.1//EN" "http://www.w3.org/Graphics/SVG/1.1/DTD/svg11.dtd">
<svg width="100%" height="100%" viewBox="0 0 24 24" version="1.1" xmlns="http://www.w3.org/2000/svg" xmlns:xlink="http://www.w3.org/1999/xlink" xml:space="preserve" xmlns:serif="http://www.serif.com/" style="fill-rule:evenodd;clip-rule:evenodd;stroke-linejoin:round;stroke-miterlimit:2;">
    <g transform="matrix(0.12,0,0,0.12,9.375e-09,0.268528)">
        <g id="layer">
            <path id="shape" d="M59.767,22.975L86.783,50L113.208,50L140.233,22.983C141.796,21.42 143.919,20.541 146.129,20.541C150.703,20.541 154.467,24.305 154.467,28.879C154.467,31.09 153.588,33.212 152.025,34.775L136.783,50L154.167,50C170.167,50 183.333,63.166 183.333,79.167L183.333,145.833C183.333,161.834 170.167,175 154.167,175L45.833,175C29.833,175 16.667,161.834 16.667,145.833L16.667,79.167C16.667,63.166 29.833,50 45.833,50L63.208,50L47.975,34.758C46.412,33.195 45.533,31.073 45.533,28.863C45.533,24.288 49.297,20.525 53.871,20.525C56.081,20.525 58.204,21.404 59.767,22.967L59.767,22.975ZM154.167,66.667L45.833,66.667C39.428,66.667 34.007,71.591 33.392,77.967L33.333,79.167L33.333,145.833C33.334,152.239 38.257,157.66 44.633,158.275L45.833,158.333L154.167,158.333C160.572,158.333 165.993,153.409 166.608,147.033L166.667,145.833L166.667,79.167C166.667,72.309 161.024,66.667 154.167,66.667ZM66.667,91.667C71.238,91.667 75,95.428 75,100L75,116.667C74.999,121.238 71.238,124.999 66.667,124.999C62.096,124.999 58.334,121.238 58.333,116.667L58.333,100C58.333,95.428 62.095,91.667 66.667,91.667ZM133.333,91.667C137.905,91.667 141.667,95.428 141.667,100L141.667,116.667C141.666,121.238 137.904,124.999 133.333,124.999C128.762,124.999 125.001,121.238 125,116.667L125,100C125,95.428 128.762,91.667 133.333,91.667Z" style="fill-rule:nonzero;"/>
        </g>
    </g>
</svg>
