<?xml version="1.0" encoding="UTF-8" standalone="no"?>
<!DOCTYPE svg PUBLIC "-//W3C//DTD SVG 1.1//EN" "http://www.w3.org/Graphics/SVG/1.1/DTD/svg11.dtd">
<svg width="100%" height="100%" viewBox="0 0 24 24" version="1.1" xmlns="http://www.w3.org/2000/svg" xmlns:xlink="http://www.w3.org/1999/xlink" xml:space="preserve" xmlns:serif="http://www.serif.com/" style="fill-rule:evenodd;clip-rule:evenodd;stroke-linejoin:round;stroke-miterlimit:2;">
    <g transform="matrix(0.0317781,0,0,0.0317781,1.62773,3.33113)">
        <g id="layer">
            <path id="shape" d="M204.484,347.042C204.628,355.257 207.248,371.219 211.178,383.686C219.437,410.072 233.446,434.483 252.939,455.996C272.942,478.109 297.575,495.87 326.026,508.48C355.932,521.723 388.335,528.473 421.992,528.417C455.594,528.373 487.997,521.49 517.903,508.147C546.354,495.415 570.964,477.576 590.935,455.452C610.416,433.85 624.403,409.395 632.685,383.008C636.847,369.676 639.478,356.145 640.533,342.568C641.565,329.192 641.132,315.793 639.234,302.406C635.526,276.319 626.501,251.842 612.603,229.529C599.893,209.026 583.508,191.076 564.026,175.968L564.071,175.935L367.465,24.976C367.288,24.843 367.143,24.698 366.955,24.576C354.055,14.674 332.365,14.708 318.178,24.632C303.836,34.667 302.193,51.262 314.959,61.73L314.903,61.786L396.904,128.468L146.971,128.735L146.638,128.735C125.979,128.757 106.12,142.311 102.19,159.439C98.15,176.89 112.181,191.365 133.661,191.443L133.628,191.52L260.31,191.276L34.254,364.792C33.965,365.003 33.654,365.225 33.388,365.436C12.063,381.765 5.17,408.918 18.602,426.102C32.233,443.574 61.217,443.607 82.764,426.201L206.138,325.229C206.138,325.229 204.34,338.861 204.484,347.042ZM521.51,392.688C496.09,418.586 460.501,433.273 421.992,433.35C383.428,433.417 347.839,418.864 322.418,393.01C309.997,380.411 300.872,365.913 295.244,350.472C289.727,335.297 287.584,319.19 289.005,302.939C290.348,287.054 295.077,271.901 302.626,258.192C310.041,244.715 320.254,232.538 332.864,222.236C357.574,202.099 389.034,191.199 421.937,191.154C454.873,191.11 486.31,201.911 511.042,221.981C523.631,232.238 533.832,244.371 541.248,257.825C548.829,271.524 553.525,286.621 554.924,302.55C556.322,318.779 554.18,334.864 548.663,350.05C543.024,365.536 533.932,380.033 521.51,392.688ZM339.802,304.626C340.979,283.634 351.258,265.141 366.766,252.031C381.974,239.154 402.444,231.283 424.778,231.283C447.091,231.283 467.561,239.154 482.78,252.031C498.277,265.141 508.556,283.634 509.744,304.604C510.92,326.173 502.251,346.209 487.043,361.062C471.535,376.17 449.478,385.65 424.778,385.65C400.079,385.65 377.978,376.17 362.481,361.062C347.262,346.209 338.614,326.173 339.802,304.626Z" style="fill-rule:nonzero;"/>
        </g>
    </g>
</svg>
