<?xml version="1.0" encoding="UTF-8" standalone="no"?>
<!DOCTYPE svg PUBLIC "-//W3C//DTD SVG 1.1//EN" "http://www.w3.org/Graphics/SVG/1.1/DTD/svg11.dtd">
<svg width="100%" height="100%" viewBox="0 0 24 24" version="1.1" xmlns="http://www.w3.org/2000/svg" xmlns:xlink="http://www.w3.org/1999/xlink" xml:space="preserve" xmlns:serif="http://www.serif.com/" style="fill-rule:evenodd;clip-rule:evenodd;stroke-linejoin:round;stroke-miterlimit:2;">
    <g id="layer">
        <g transform="matrix(0.10157,0,0,0.10157,1.79134,1.62841)">
            <path d="M196.2,91.031C188.981,87.356 180.617,86.599 172.856,88.919C171.399,80.935 166.865,73.833 160.237,69.15L157.738,67.181L155.619,69.556C151.617,74.957 149.847,81.699 150.681,88.369C151.019,92.943 152.654,97.328 155.394,101.006C153.238,102.229 150.964,103.23 148.606,103.994C144.089,105.474 139.366,106.235 134.613,106.25L2.65,106.25L2.369,109.206C1.316,119.032 2.92,128.962 7.012,137.956L8.819,141.538L9.025,141.875C21.431,162.362 46.181,172.975 69.925,172.975C115.9,172.975 150.856,151.031 168.275,108.869C179.913,109.462 191.819,106.112 197.512,95.312L198.963,92.556L196.2,91.006L196.2,91.031ZM41.106,144.375C35.564,144.21 31.094,139.606 31.094,134.061C31.094,128.4 35.752,123.742 41.413,123.742C47.071,123.742 51.729,128.397 51.731,134.056C51.643,139.799 46.849,144.454 41.106,144.375Z" style="fill-rule:nonzero;"/>
        </g>
        <g transform="matrix(0.10157,0,0,0.10157,1.79134,1.62841)">
            <path d="M41.106,128.6C38.187,128.684 35.831,131.108 35.831,134.029C35.831,137.008 38.283,139.46 41.263,139.46C44.239,139.46 46.689,137.014 46.694,134.038C46.653,131.042 44.178,128.599 41.182,128.599C41.157,128.599 41.131,128.6 41.106,128.6M12.5,81.25L31.25,81.25L31.25,100L12.5,100L12.5,81.25ZM37.5,81.25L56.25,81.25L56.25,100L37.5,100L37.5,81.25ZM37.5,56.25L56.25,56.25L56.25,75L37.5,75L37.5,56.25ZM62.5,56.25L81.25,56.25L81.25,75L62.5,75L62.5,56.25ZM62.5,81.25L81.25,81.25L81.25,100L62.5,100L62.5,81.25ZM87.5,81.25L106.25,81.25L106.25,100L87.5,100L87.5,81.25ZM112.5,81.25L131.25,81.25L131.25,100L112.5,100L112.5,81.25ZM87.5,56.25L106.25,56.25L106.25,75L87.5,75L87.5,56.25ZM87.5,31.25L106.25,31.25L106.25,50L87.5,50L87.5,31.25Z" style="fill-rule:nonzero;"/>
        </g>
    </g>
</svg>
