<?xml version="1.0" encoding="UTF-8" standalone="no"?>
<!DOCTYPE svg PUBLIC "-//W3C//DTD SVG 1.1//EN" "http://www.w3.org/Graphics/SVG/1.1/DTD/svg11.dtd">
<svg width="100%" height="100%" viewBox="0 0 24 24" version="1.1" xmlns="http://www.w3.org/2000/svg" xmlns:xlink="http://www.w3.org/1999/xlink" xml:space="preserve" xmlns:serif="http://www.serif.com/" style="fill-rule:evenodd;clip-rule:evenodd;stroke-linejoin:round;stroke-miterlimit:2;">
    <g transform="matrix(0.886406,0,0,0.886406,-9.24738,-9.26282)">
        <g id="layer">
            <path id="shape" d="M24.269,31.709C21.124,31.879 18.356,29.986 17.15,27.404C15.824,24.568 16.074,21.767 17.967,19.267C19.771,16.884 22.28,15.937 25.25,16.292C26.725,16.468 28.025,17.074 29.158,18.036C29.773,18.558 29.759,18.791 29.078,19.182C28.485,19.522 27.89,19.857 27.301,20.203C25.671,21.157 24.032,22.095 22.422,23.081C21.56,23.609 21.387,24.45 21.869,25.324C22.391,26.268 23.401,26.488 24.472,25.869C27.655,24.029 30.826,22.17 34.019,20.347C34.547,20.045 34.605,19.738 34.37,19.227C33.545,17.429 32.328,15.952 30.699,14.847C27.098,12.406 23.255,12.014 19.321,13.869C15.395,15.719 13.263,18.969 12.909,23.251C12.615,26.801 13.966,29.807 16.528,32.28C20.101,35.729 26.071,36.272 30.175,33.499C31.244,32.777 31.244,32.777 30.581,31.675C29.865,30.484 29.154,30.262 27.91,30.858C26.734,31.422 25.514,31.789 24.269,31.709ZM35.071,26.664C35.012,25.811 34.549,25.119 34.15,24.404C34.02,24.171 33.811,24.261 33.624,24.367C32.893,24.786 32.164,25.208 31.427,25.617C31.113,25.791 31.058,26.001 31.239,26.306C31.659,27.014 32.076,27.723 32.478,28.44C32.653,28.752 32.863,28.823 33.164,28.632C33.605,28.354 34.06,28.096 34.486,27.796C34.864,27.528 35.086,27.153 35.071,26.664Z" style="fill-rule:nonzero;"/>
        </g>
    </g>
</svg>
