<?xml version="1.0" encoding="UTF-8" standalone="no"?>
<!DOCTYPE svg PUBLIC "-//W3C//DTD SVG 1.1//EN" "http://www.w3.org/Graphics/SVG/1.1/DTD/svg11.dtd">
<svg width="100%" height="100%" viewBox="0 0 24 24" version="1.1" xmlns="http://www.w3.org/2000/svg" xmlns:xlink="http://www.w3.org/1999/xlink" xml:space="preserve" xmlns:serif="http://www.serif.com/" style="fill-rule:evenodd;clip-rule:evenodd;stroke-linejoin:round;stroke-miterlimit:2;">
    <g transform="matrix(0.0483831,0,0,0.0483831,-0.101407,-0.0957789)">
        <g id="layer">
            <path id="shape" d="M456.4,237.9C456.3,236.6 456.2,235.3 456.2,234L456.2,233.9C456.1,232.6 456,231.3 455.9,230L455.9,229.9C454.8,218.2 452.8,206.7 449.8,195.6C449.8,195.5 449.8,195.5 449.7,195.4C449.4,194.3 449.1,193.2 448.8,192.1C448.7,191.9 448.7,191.7 448.6,191.6C448.3,190.6 448,189.5 447.7,188.5C447.6,188.3 447.6,188 447.5,187.8C447.2,186.8 446.9,185.8 446.6,184.9C446.5,184.6 446.4,184.4 446.3,184.1C446,183.1 445.7,182.2 445.3,181.2C445.2,180.9 445.1,180.6 445,180.3C444.7,179.4 444.3,178.4 444,177.5C443.9,177.2 443.8,176.9 443.7,176.7C443.3,175.8 443,174.8 442.6,173.9C442.5,173.7 442.4,173.4 442.3,173.2C441.9,172.2 441.5,171.3 441.1,170.3C441.1,170.2 441,170.1 441,170C439.7,166.8 438.3,163.6 436.8,160.5C436.7,160.3 436.6,160.1 436.5,159.9C436.1,159.1 435.8,158.4 435.4,157.7C435.2,157.3 435,156.8 434.8,156.4C434.5,155.7 434.1,155.1 433.8,154.4C433.5,153.9 433.3,153.4 433,152.9C432.7,152.3 432.3,151.7 432,151C431.7,150.5 431.4,149.9 431.1,149.4C430.8,148.8 430.4,148.2 430.1,147.6C429.8,147 429.5,146.5 429.1,145.9C428.8,145.3 428.4,144.8 428.1,144.2C427.8,143.6 427.4,143.1 427.1,142.5C426.8,142 426.4,141.4 426.1,140.9C425.7,140.3 425.4,139.7 425,139.1C424.7,138.6 424.4,138.1 424,137.6C423.6,137 423.2,136.4 422.8,135.8C422.5,135.3 422.2,134.8 421.8,134.3C421.4,133.7 420.9,133 420.5,132.4C420.2,132 419.9,131.5 419.6,131.1C419.1,130.4 418.6,129.7 418.1,129C417.8,128.6 417.6,128.3 417.3,127.9C416.5,126.8 415.8,125.8 415,124.8C409,116.9 402.4,109.5 395.4,102.6C390.6,97.6 385.5,93 380.1,88.7C376.8,85.8 373.3,83.1 369.7,80.5C363.4,75.8 356.6,71.6 349.2,67.9C347.2,66.8 345.2,65.8 343.2,64.8C328.4,57.7 313,52 297,48.5C295.4,48.2 293.8,47.8 292.3,47.5L292.2,47.5C291.4,47.4 290.7,47.2 289.9,47.1C279.5,45.2 268.9,44 258.2,43.8L249.4,43.8C236.4,44 223.6,45.4 211.5,48C183.5,53.9 158.8,65.7 142.4,80.5C141.5,81.3 140.8,81.9 140.4,82.3C140.3,82.4 140.1,82.6 140,82.7L140.1,82.7L140,82.8L140.1,82.7C140.1,82.7 140.2,82.7 140.2,82.6L140.1,82.7C140.1,82.7 140.2,82.6 140.3,82.6C152.5,75.3 169.4,69.3 181.5,66.3C183.1,65.9 184.8,65.5 186.4,65.1C186.7,65 187.1,65 187.4,64.9C188.8,64.6 190.2,64.3 191.7,64C191.9,64 192.2,63.9 192.4,63.9C245.9,54.1 302.9,70.1 342.6,108C351.1,116.2 358.8,125.3 365,135.3C390.3,176.3 387.9,227.9 368.2,258.3C339.5,302.5 275.4,317.7 235.7,279C222.5,266.2 214.6,248.3 214.4,229.8C214.3,220.9 216,212.1 219.6,204C221,200.8 230.5,182.6 234.8,183.5C223.9,181.2 203.5,185.7 189.2,207C176.4,226.1 177.1,255.5 185,276.4C180.2,266.3 176.7,256.1 174.9,243.7C164.7,174.9 211,116.2 253.5,101.6C230.6,81.6 173.1,83 130.4,114.4C105.5,132.7 87.7,158.7 78.3,189.7C79.7,172.3 86.3,146.3 99.8,119.8C85.5,127.2 67.3,150.6 58.3,172.2C45.3,203.4 40.8,240.7 44.9,276.2C45.2,278.9 45.5,281.5 45.8,284.2C62.4,381.8 147.5,456.2 249.8,456.2C364.1,456.2 456.8,363.5 456.8,249.2C456.7,245.4 456.6,241.6 456.4,237.9Z" style="fill-rule:nonzero;"/>
        </g>
    </g>
</svg>
