<?xml version="1.0" encoding="UTF-8" standalone="no"?>
<!DOCTYPE svg PUBLIC "-//W3C//DTD SVG 1.1//EN" "http://www.w3.org/Graphics/SVG/1.1/DTD/svg11.dtd">
<svg width="100%" height="100%" viewBox="0 0 24 24" version="1.1" xmlns="http://www.w3.org/2000/svg" xmlns:xlink="http://www.w3.org/1999/xlink" xml:space="preserve" xmlns:serif="http://www.serif.com/" style="fill-rule:evenodd;clip-rule:evenodd;stroke-linejoin:round;stroke-miterlimit:2;">
    <g transform="matrix(0.10005,0,0,0.10005,1.995,1.99458)">
        <g id="layer">
            <path id="shape" d="M0.05,170.583L47.075,100L0.05,29.425L35.342,29.425L82.625,100.008L35.342,170.575L0.05,170.583ZM47.075,170.583L94.083,100L47.083,29.425L82.633,29.425L176.408,170.575L141.208,170.575L111.75,126.075L82.625,170.575L47.075,170.583ZM160.833,129.375L145.192,105.817L199.95,105.817L199.95,129.367L160.833,129.375ZM137.283,94.083L121.642,70.525L199.867,70.525L199.867,94.083L137.283,94.083Z" style="fill-rule:nonzero;"/>
        </g>
    </g>
</svg>
