<?xml version="1.0" encoding="UTF-8" standalone="no"?>
<!DOCTYPE svg PUBLIC "-//W3C//DTD SVG 1.1//EN" "http://www.w3.org/Graphics/SVG/1.1/DTD/svg11.dtd">
<svg width="100%" height="100%" viewBox="0 0 24 24" version="1.1" xmlns="http://www.w3.org/2000/svg" xmlns:xlink="http://www.w3.org/1999/xlink" xml:space="preserve" xmlns:serif="http://www.serif.com/" style="fill-rule:evenodd;clip-rule:evenodd;stroke-linejoin:round;stroke-miterlimit:2;">
    <g id="layer" transform="matrix(0.209425,0,0,0.209425,-0.56553,-0.565597)">
        <path id="shape" d="M101.639,54.86C101.61,52.72 101.549,51.331 101.459,49.411L101.44,48.97C101.259,44.951 100.669,41.82 99.508,38.831C98.378,35.911 96.878,33.61 94.679,31.4C92.48,29.201 90.19,27.711 87.24,26.56C84.258,25.411 81.139,24.81 77.11,24.621C73.829,24.47 72.249,24.421 67.78,24.39L73.03,18.69C73.73,17.94 74.088,16.951 74.048,15.921C73.99,14.881 73.53,13.93 72.77,13.251C71.179,11.82 68.708,11.94 67.289,13.51L59.999,21.421L52.74,13.52C51.298,11.951 48.838,11.831 47.249,13.251C46.48,13.94 46.02,14.89 45.969,15.911C45.918,16.951 46.28,17.93 46.99,18.68L52.23,24.4C47.838,24.421 46.168,24.47 42.9,24.621C38.878,24.81 35.749,25.411 32.758,26.56C29.82,27.711 27.53,29.201 25.338,31.4C23.128,33.631 21.628,35.921 20.499,38.831C19.35,41.81 18.749,44.94 18.56,48.97C18.36,53.371 18.31,54.831 18.31,66.07C18.31,77.31 18.36,78.77 18.56,83.17C18.749,87.219 19.35,90.34 20.499,93.299C21.628,96.21 23.119,98.5 25.338,100.729C27.508,102.92 29.798,104.41 32.758,105.569C35.719,106.729 38.85,107.33 42.9,107.519C47.289,107.71 48.61,107.75 60.008,107.75C71.4,107.75 72.73,107.71 77.11,107.519C81.168,107.33 84.298,106.729 87.24,105.569C90.19,104.42 92.48,102.929 94.679,100.729C96.9,98.5 98.389,96.21 99.508,93.299C100.669,90.331 101.259,87.21 101.44,83.17C101.65,78.889 101.69,77.59 101.69,66.07C101.69,60.661 101.679,57.281 101.639,54.86ZM93.73,66.07C93.73,71.85 93.719,74.81 93.69,76.98C93.65,79.219 93.588,80.63 93.499,82.77L93.499,82.799C93.309,86.82 92.639,88.991 92.079,90.429C91.349,92.32 90.469,93.67 89.039,95.099C87.61,96.519 86.258,97.411 84.349,98.139C82.909,98.71 80.74,99.38 76.74,99.549C72.469,99.75 71.168,99.79 60.008,99.79C48.838,99.79 47.548,99.75 43.27,99.549C39.289,99.38 37.11,98.71 35.65,98.139C33.758,97.4 32.4,96.519 30.98,95.099C29.548,93.67 28.668,92.32 27.93,90.429C27.369,88.96 26.7,86.759 26.53,82.799C26.338,78.581 26.28,77.451 26.28,66.07C26.28,54.701 26.338,53.56 26.53,49.331C26.7,45.341 27.369,43.161 27.93,41.711C28.659,39.82 29.539,38.47 30.98,37.04C32.378,35.631 33.73,34.751 35.65,33.991C37.11,33.43 39.298,32.76 43.27,32.581C47.588,32.39 48.89,32.35 60.008,32.35C71.128,32.35 72.429,32.39 76.74,32.581C80.73,32.76 82.9,33.43 84.349,33.991C86.28,34.751 87.628,35.631 89.039,37.04C90.48,38.47 91.36,39.831 92.079,41.72C92.639,43.121 93.298,45.241 93.499,49.331C93.69,53.65 93.73,54.96 93.73,66.07ZM56.558,72.318L56.558,66.465C56.558,66.132 56.239,65.894 55.918,65.986L39.724,70.65C37.485,71.289 35.142,69.764 34.942,67.313C34.797,65.528 36.023,63.911 37.743,63.415L60.228,56.939C62.145,56.388 64.058,57.827 64.058,59.823L64.058,65.672C64.058,66.005 64.375,66.247 64.696,66.154L80.274,61.666C82.505,61.021 84.856,62.55 85.056,65.005C85.201,66.789 83.976,68.405 82.255,68.9L60.388,75.201C58.47,75.753 56.558,74.314 56.558,72.318Z" style="fill:rgb(25,25,25);fill-rule:nonzero;"/>
    </g>
</svg>
