<?xml version="1.0" encoding="UTF-8" standalone="no"?>
<!DOCTYPE svg PUBLIC "-//W3C//DTD SVG 1.1//EN" "http://www.w3.org/Graphics/SVG/1.1/DTD/svg11.dtd">
<svg width="100%" height="100%" viewBox="0 0 24 24" version="1.1" xmlns="http://www.w3.org/2000/svg" xmlns:xlink="http://www.w3.org/1999/xlink" xml:space="preserve" xmlns:serif="http://www.serif.com/" style="fill-rule:evenodd;clip-rule:evenodd;stroke-linejoin:round;stroke-miterlimit:2;">
    <g transform="matrix(0.100175,0,0,0.100175,1.99483,2)">
        <g id="layer">
            <path id="shape" d="M133.75,122.188C137.5,119.688 142.813,117.188 142.813,117.188C142.813,117.188 127.813,120 112.812,121.25C94.375,122.812 74.687,123.125 64.687,121.875C41.25,118.75 77.5,110 77.5,110C77.5,110 63.437,109.063 45.937,117.5C25.312,127.5 96.563,131.875 133.75,122.188ZM100.312,109.688C92.812,93.125 67.812,78.438 100.312,52.813C140.625,20.625 120,0 120,0C128.438,33.125 90.625,43.125 76.875,63.438C67.5,77.5 81.25,92.5 100.312,109.688ZM145,40.938C145,40.938 76.563,58.125 109.375,95.625C119.063,106.563 106.875,116.563 106.875,116.563C106.875,116.563 131.25,104.063 120,88.125C109.375,73.438 101.563,66.25 145,40.938ZM142.5,146.563C142.187,146.875 141.875,147.188 141.875,147.5C191.875,134.375 173.437,100.937 149.687,109.375C148.437,110 147.187,110.625 146.562,111.875C147.812,111.25 149.375,110.938 150.937,110.625C162.812,108.125 180.312,126.875 142.5,146.563ZM160.937,170.938C160.937,170.938 166.562,175.625 154.687,179.063C132.187,185.938 60.625,187.812 40.937,179.375C33.75,176.25 47.187,171.875 51.25,170.938C55.625,170 58.125,170.312 58.125,170.312C50.312,164.688 6.875,181.25 36.25,185.937C115.937,199.063 181.875,180.313 160.937,170.938ZM73.75,154.687C43.125,163.125 92.5,180.937 131.562,164.375C127.812,162.812 124.062,160.937 120.625,159.062C103.125,162.5 95,162.5 79.375,160.937C65.937,159.062 73.75,154.687 73.75,154.687ZM144.062,192.5C113.437,198.125 75.312,197.5 52.812,193.75C52.812,193.75 57.5,197.5 80.937,199.063C116.875,201.25 172.187,197.813 173.438,180.625C173.75,180.938 171.25,187.5 144.063,192.5ZM126.875,137.812C103.75,142.187 90.312,142.187 73.437,140.312C60.312,139.062 69.062,132.5 69.062,132.5C35.312,143.75 87.812,156.562 135.313,142.5C132.188,141.875 129.375,140 126.875,137.812Z" style="fill-rule:nonzero;"/>
        </g>
    </g>
</svg>
