<?xml version="1.0" encoding="UTF-8" standalone="no"?>
<!DOCTYPE svg PUBLIC "-//W3C//DTD SVG 1.1//EN" "http://www.w3.org/Graphics/SVG/1.1/DTD/svg11.dtd">
<svg width="100%" height="100%" viewBox="0 0 24 24" version="1.1" xmlns="http://www.w3.org/2000/svg" xmlns:xlink="http://www.w3.org/1999/xlink" xml:space="preserve" xmlns:serif="http://www.serif.com/" style="fill-rule:evenodd;clip-rule:evenodd;stroke-linejoin:round;stroke-miterlimit:2;">
    <g transform="matrix(0.1,0,0,0.1,2,2)">
        <g id="layer">
            <path id="shape" d="M0,0L200,0L200,200L0,200L0,0ZM17.5,175L92.5,175L92.5,162.5L17.5,162.5L17.5,175ZM27.5,57.5L30,57.5C35.833,56.667 40,51.667 40,45L40,25L30.833,25L30.833,45.833C30.833,49.167 30,50 27.5,50C25,50 23.333,49.167 22.5,47.5L16.667,52.5C19.167,56.667 23.333,58.333 27.5,57.5ZM69.167,58.333L69.167,50L51.667,50L51.667,45L66.667,45L66.667,37.5L51.667,37.5L51.667,32.5L69.167,32.5L69.167,25L42.5,25L42.5,58.333L69.167,58.333ZM80,57.5L89.167,57.5L89.167,32.5L99.167,32.5L99.167,25L70.833,25L70.833,32.5L80.833,32.5L80.833,57.5L80,57.5ZM46.667,89.167C46.667,85 44.167,81.667 40,81.667C43.333,80.833 45,77.5 45,74.167C45,72.5 44.167,70 43.333,68.333C40.833,65.833 37.5,65 34.167,65L17.5,65L17.5,97.5L34.167,97.5C41.667,97.5 46.667,94.167 46.667,89.167ZM25.833,72.5L31.667,72.5C34.167,72.5 35.833,73.333 35.833,75C35.833,77.5 34.167,78.333 31.667,78.333L25.833,78.333L25.833,72.5ZM25.833,90L25.833,84.167L32.5,84.167C35.833,84.167 37.5,85 36.667,86.667C36.667,88.333 35,90 32.5,90L25.833,90ZM87.5,65L75,94.167L70,86.667C74.167,85 76.667,80.833 76.667,76.667C76.667,74.167 75.833,70.833 74.167,69.167C70.833,65.833 66.667,65 63.333,65L47.5,65L47.5,97.5L56.667,97.5L56.667,87.5L60.833,87.5L67.5,97.5L82.5,97.5L85,91.667L97.5,91.667L100,97.5L110,97.5L96.667,64.167L87.5,64.167L87.5,65ZM62.5,80.833L56.667,80.833L56.667,73.333L62.5,73.333C65,73.333 67.5,74.167 67.5,77.5C67.5,79.167 65.833,80.833 62.5,80.833ZM95,85L88.333,85L91.667,75.833L95,85ZM110.833,97.5L120,97.5L120,65L110.833,65L110.833,97.5ZM144.167,82.5L130.833,65L122.5,65L122.5,97.5L131.667,97.5L131.667,80L145.833,98.333L153.333,98.333L153.333,65L144.167,65L144.167,82.5ZM170,77.5C165.833,76.667 164.167,75.833 164.167,74.167C164.167,73.333 165,72.5 167.5,72.5C170.833,72.5 174.167,74.167 176.667,75.833L181.667,69.167C177.5,65.833 173.333,65 168.333,65C160.833,65 155.833,70 155.833,75.833C155.833,82.5 160.833,84.167 168.333,85.833C172.5,86.667 174.167,87.5 174.167,89.167C174.167,90.833 172.5,91.667 170,91.667C165.833,91.667 162.5,90 159.167,87.5L154.167,93.333C158.333,96.667 164.167,98.333 169.167,98.333C177.5,98.333 182.5,94.167 182.5,87.5C182.5,81.667 177.5,79.167 170,77.5Z" style="fill-rule:nonzero;"/>
        </g>
    </g>
</svg>
