<?xml version="1.0" encoding="UTF-8" standalone="no"?>
<!DOCTYPE svg PUBLIC "-//W3C//DTD SVG 1.1//EN" "http://www.w3.org/Graphics/SVG/1.1/DTD/svg11.dtd">
<svg width="100%" height="100%" viewBox="0 0 24 24" version="1.1" xmlns="http://www.w3.org/2000/svg" xmlns:xlink="http://www.w3.org/1999/xlink" xml:space="preserve" xmlns:serif="http://www.serif.com/" style="fill-rule:evenodd;clip-rule:evenodd;stroke-linejoin:round;stroke-miterlimit:2;">
    <g transform="matrix(0.1,0,0,0.100503,2,1.94975)">
        <path id="shape" d="M182.167,148.833C182.944,148.833 183.639,149.167 184.25,149.833C184.806,150.556 185.083,151.25 185.083,151.917C185.083,152.583 184.778,153.5 184.167,154.667L181.5,158.5L177.917,162.917L174.25,167.083C173.083,168.472 172.028,169.639 171.083,170.583L169.25,172.5C166.028,175.444 162.306,178.333 158.083,181.167C153.861,184 149.417,186.528 144.75,188.75C139.972,190.972 135.139,192.75 130.25,194.083C125.361,195.417 120.722,196.083 116.333,196.083C111.333,196.083 106.639,195.306 102.25,193.75C97.806,192.194 93.694,190.028 89.917,187.25C86.139,184.472 82.75,181.222 79.75,177.5C76.806,173.833 74.25,169.833 72.083,165.5C69.972,161.222 68.361,156.778 67.25,152.167C66.139,147.556 65.583,142.917 65.583,138.25C65.583,132.694 66.472,127.25 68.25,121.917C70.083,116.528 72.5,111.528 75.5,106.917C76.278,112.194 77.806,117.111 80.083,121.667C82.361,126.222 85.194,130.389 88.583,134.167C91.917,137.944 95.75,141.306 100.083,144.25C104.417,147.25 108.972,149.75 113.75,151.75C118.528,153.75 123.444,155.306 128.5,156.417C133.611,157.528 138.611,158.083 143.5,158.083C149.722,158.083 155.778,157.417 161.667,156.083C167.556,154.806 173.278,152.806 178.833,150.083L180.5,149.25L182.167,148.833ZM53,138.25C53,144.361 53.75,150.333 55.25,156.167C56.75,162.056 58.917,167.694 61.75,173.083C64.583,178.417 68.028,183.333 72.083,187.833C76.194,192.389 80.806,196.278 85.917,199.5C77.75,198.389 69.972,196.333 62.583,193.333C55.194,190.278 48.306,186.472 41.917,181.917C35.528,177.306 29.75,172.028 24.583,166.083C19.472,160.139 15.083,153.667 11.417,146.667C7.75,139.667 4.944,132.278 3,124.5C1,116.722 0,108.722 0,100.5C0,96 0.889,91.861 2.667,88.083C4.389,84.306 6.694,80.889 9.583,77.833C12.528,74.778 15.861,72.111 19.583,69.833C23.25,67.611 27,65.778 30.833,64.333C34.944,62.833 39.111,61.75 43.333,61.083C47.667,60.417 51.972,60.083 56.25,60.083C60.139,60.083 64.083,60.361 68.083,60.917C72.083,61.583 75.972,62.556 79.75,63.833C83.528,65.111 87.194,66.694 90.75,68.583C94.25,70.528 97.472,72.833 100.417,75.5C98.472,75.5 96.528,75.694 94.583,76.083C92.75,76.472 90.944,77.111 89.167,78L89.167,77.833C85.667,79.389 82.333,81.444 79.167,84C76,86.556 73.083,89.444 70.417,92.667C67.75,95.889 65.333,99.389 63.167,103.167C61.056,106.889 59.25,110.75 57.75,114.75C56.25,118.694 55.083,122.694 54.25,126.75C53.417,130.75 53,134.583 53,138.25ZM99.667,0.5C109.111,0.5 118.361,1.583 127.417,3.75C136.472,5.861 145,9.056 153,13.333C160.944,17.611 168.222,22.972 174.833,29.417C181.389,35.861 186.889,43.361 191.333,51.917C194.056,57.139 196.167,62.583 197.667,68.25C199.222,73.806 200,79.583 200,85.583C200,90.528 199.361,95.25 198.083,99.75C196.75,104.194 194.833,108.306 192.333,112.083C189.833,115.861 186.778,119.25 183.167,122.25C179.611,125.194 175.583,127.639 171.083,129.583C168.083,130.917 165,131.917 161.833,132.583C158.611,133.306 155.389,133.667 152.167,133.667C149.833,133.667 147.139,133.583 144.083,133.417C141.083,133.25 138.028,132.917 134.917,132.417C131.861,131.861 128.944,131.083 126.167,130.083C123.389,129.028 121.056,127.639 119.167,125.917C118.5,125.417 117.861,124.75 117.25,123.917C116.694,123.028 116.417,122.111 116.417,121.167C116.417,120.333 116.861,119.361 117.75,118.25C118.639,117.139 119.611,115.75 120.667,114.083C121.778,112.528 122.778,110.639 123.667,108.417C124.556,106.194 125,103.556 125,100.5C125,94.611 123.889,89.167 121.667,84.167C119.444,79.111 116.5,74.556 112.833,70.5C109.167,66.389 104.944,62.833 100.167,59.833C95.389,56.778 90.417,54.306 85.25,52.417C80.583,50.75 75.806,49.528 70.917,48.75C66.083,47.972 61.194,47.583 56.25,47.583C47.639,47.583 39.139,48.833 30.75,51.333C22.361,53.833 14.722,57.694 7.833,62.917C11.778,53.25 16.806,44.556 22.917,36.833C29.028,29.167 36.028,22.639 43.917,17.25C51.75,11.861 60.361,7.722 69.75,4.833C79.194,1.944 89.139,0.5 99.583,0.5L99.667,0.5Z" style="fill-rule:nonzero;"/>
    </g>
</svg>
