<?xml version="1.0" encoding="UTF-8" standalone="no"?>
<!DOCTYPE svg PUBLIC "-//W3C//DTD SVG 1.1//EN" "http://www.w3.org/Graphics/SVG/1.1/DTD/svg11.dtd">
<svg width="100%" height="100%" viewBox="0 0 24 24" version="1.1" xmlns="http://www.w3.org/2000/svg" xmlns:xlink="http://www.w3.org/1999/xlink" xml:space="preserve" xmlns:serif="http://www.serif.com/" style="fill-rule:evenodd;clip-rule:evenodd;stroke-linejoin:round;stroke-miterlimit:2;">
    <g transform="matrix(0.126317,0,0,0.126317,-0.631565,-0.631832)">
        <g id="layer">
            <path id="shape" d="M86.842,94.792C84.392,103.358 86.942,111.992 93.375,116.9C102.217,123.65 114.75,119.4 117.325,108.608C117.992,105.8 118.183,102.592 117.55,99.808C115.633,91.467 113.217,83.242 110.95,74.842C99.867,76.125 89.758,84.608 86.842,94.792ZM133.075,92.4C135.35,100.833 135.45,109.208 132.017,117.4C122.617,139.817 92.675,143.567 77.242,124.283C66.392,110.725 66.575,91.275 77.742,76.5C84.242,67.9 92.775,62.275 103.142,59.383L106.3,58.517C105.6,55.058 104.733,51.717 104.275,48.317C102.808,37.342 108.542,27.458 118.808,22.983C129.025,18.525 141.375,21.183 148.225,29.317C151.608,33.308 151.517,38.317 148.017,41.517C144.583,44.658 139.717,44.4 136.058,40.767C134,38.717 131.808,37.1 128.75,37.133C124.375,37.183 120.525,40.617 120.875,44.942C121.183,48.842 122.317,52.692 123.375,56.492C123.558,57.142 125.175,57.617 126.192,57.767C137.308,59.408 147.058,63.858 155.125,71.733C176.442,92.508 178.967,126.158 160.725,150.4C147.983,167.333 130.642,176.8 109.667,178.808C71.158,182.475 37.467,157.725 28.833,119.992C20.958,85.458 40.333,48.592 73.292,35.417C78.175,33.467 82.817,35.158 84.717,39.567C86.65,44.042 84.558,48.617 79.633,50.817C59.9,59.65 47.825,74.608 44.508,96.017C40.067,124.625 58.308,152.483 86.175,160.35C108.867,166.767 133.325,158.967 147.075,140.933C160.292,123.6 158.742,98.442 143.517,83.658C139.294,79.544 134.049,76.63 128.325,75.217C129.975,81.183 131.567,86.783 133.075,92.4Z" style="fill-rule:nonzero;"/>
        </g>
    </g>
</svg>
