<?xml version="1.0" encoding="UTF-8" standalone="no"?>
<!DOCTYPE svg PUBLIC "-//W3C//DTD SVG 1.1//EN" "http://www.w3.org/Graphics/SVG/1.1/DTD/svg11.dtd">
<svg width="100%" height="100%" viewBox="0 0 24 24" version="1.1" xmlns="http://www.w3.org/2000/svg" xmlns:xlink="http://www.w3.org/1999/xlink" xml:space="preserve" xmlns:serif="http://www.serif.com/" style="fill-rule:evenodd;clip-rule:evenodd;stroke-linejoin:round;stroke-miterlimit:2;">
    <g transform="matrix(0.100034,0,0,0.100034,1.99656,1.99979)">
        <g id="layer">
            <path id="shape" d="M37.18,35.055C43.395,40.103 45.727,39.72 57.406,38.937L167.493,32.33C169.826,32.33 167.885,29.998 167.11,29.615L148.816,16.394C145.318,13.679 140.644,10.563 131.697,11.338L25.109,19.118C21.227,19.502 20.444,21.451 21.994,23L37.18,35.055ZM43.786,60.704L43.786,176.539C43.786,182.762 46.893,185.094 53.899,184.703L174.882,177.705C181.888,177.322 182.671,173.04 182.671,167.984L182.671,52.932C182.671,47.883 180.73,45.159 176.44,45.543L50.009,52.932C45.344,53.323 43.786,55.656 43.786,60.704ZM163.22,66.919C163.995,70.417 163.22,73.916 159.721,74.316L153.89,75.482L153.89,160.986C148.825,163.71 144.16,165.268 140.269,165.268C134.038,165.268 132.48,163.319 127.815,157.496L89.687,97.633L89.687,155.546L101.749,158.279C101.749,158.279 101.749,165.276 92.019,165.276L65.179,166.826C64.404,165.276 65.179,161.386 67.903,160.611L74.9,158.67L74.9,82.088L65.195,81.305C64.412,77.806 66.362,72.758 71.801,72.367L100.591,70.426L140.278,131.063L140.278,77.415L130.156,76.257C129.382,71.975 132.489,68.868 136.379,68.485L163.22,66.919ZM16.162,8.622L127.041,0.458C140.653,-0.708 144.16,0.067 152.715,6.289L188.111,31.164C193.943,35.438 195.892,36.604 195.892,41.269L195.892,177.705C195.892,186.252 192.785,191.317 181.897,192.084L53.125,199.864C44.961,200.256 41.062,199.089 36.78,193.641L10.714,159.82C6.049,153.597 4.108,148.94 4.108,143.492L4.108,22.217C4.108,15.228 7.224,9.388 16.162,8.622Z" style="fill-rule:nonzero;"/>
        </g>
    </g>
</svg>
