<?xml version="1.0" encoding="UTF-8" standalone="no"?>
<!DOCTYPE svg PUBLIC "-//W3C//DTD SVG 1.1//EN" "http://www.w3.org/Graphics/SVG/1.1/DTD/svg11.dtd">
<svg width="100%" height="100%" viewBox="0 0 24 24" version="1.1" xmlns="http://www.w3.org/2000/svg" xmlns:xlink="http://www.w3.org/1999/xlink" xml:space="preserve" xmlns:serif="http://www.serif.com/" style="fill-rule:evenodd;clip-rule:evenodd;stroke-linejoin:round;stroke-miterlimit:2;">
    <g id="layer" transform="matrix(0.143332,0,0,0.143332,-25.0175,1.91486)">
        <path id="shape" d="M258.267,0.59C219.735,0.59 188.496,31.828 188.496,70.36C188.496,98.929 205.676,123.471 230.258,134.262C230.062,129.39 230.223,123.542 231.473,118.241C232.813,112.577 240.45,80.225 240.45,80.225C240.45,80.225 238.221,75.77 238.221,69.185C238.221,58.846 244.214,51.125 251.677,51.125C258.022,51.125 261.088,55.891 261.088,61.599C261.088,67.979 257.019,77.521 254.927,86.359C253.179,93.76 258.638,99.797 265.939,99.797C279.158,99.797 288.061,82.819 288.061,62.703C288.061,47.411 277.762,35.965 259.03,35.965C237.866,35.965 224.682,51.749 224.682,69.379C224.682,75.457 226.474,79.744 229.281,83.062C230.571,84.588 230.751,85.201 230.283,86.951C229.949,88.235 229.181,91.326 228.862,92.55C228.397,94.317 226.966,94.949 225.369,94.297C215.621,90.317 211.081,79.641 211.081,67.641C211.081,47.823 227.796,24.057 260.945,24.057C287.582,24.057 305.113,43.334 305.113,64.024C305.113,91.394 289.897,111.841 267.468,111.841C259.936,111.841 252.851,107.769 250.424,103.145C250.424,103.145 246.373,119.219 245.516,122.323C244.036,127.702 241.141,133.078 238.493,137.27C244.769,139.121 251.396,140.13 258.267,140.13C296.794,140.13 328.032,108.894 328.032,70.36C328.032,31.828 296.794,0.59 258.267,0.59Z" style="fill-rule:nonzero;"/>
    </g>
</svg>
