<?xml version="1.0" encoding="UTF-8" standalone="no"?>
<!DOCTYPE svg PUBLIC "-//W3C//DTD SVG 1.1//EN" "http://www.w3.org/Graphics/SVG/1.1/DTD/svg11.dtd">
<svg width="100%" height="100%" viewBox="0 0 24 24" version="1.1" xmlns="http://www.w3.org/2000/svg" xmlns:xlink="http://www.w3.org/1999/xlink" xml:space="preserve" xmlns:serif="http://www.serif.com/" style="fill-rule:evenodd;clip-rule:evenodd;stroke-linejoin:round;stroke-miterlimit:2;">
    <g transform="matrix(0.416667,0,0,0.416667,2,2)">
        <g id="layer">
            <path id="shape" d="M30.804,20.411C30.804,21.411 30.451,22.259 29.746,22.955C29.04,23.652 28.188,24 27.188,24L20.411,24L20.411,16.795L27.188,16.795C28.188,16.795 29.04,17.147 29.746,17.853C30.451,18.558 30.804,19.411 30.804,20.411ZM35.598,20.411C35.598,18.089 34.781,16.107 33.147,14.464C31.513,12.821 29.527,12 27.188,12L15.589,12L15.589,36L20.411,36L20.411,28.795L27.188,28.795C29.509,28.795 31.491,27.978 33.134,26.344C34.777,24.71 35.598,22.732 35.598,20.411ZM48,24C48,27.25 47.366,30.357 46.098,33.321C44.83,36.286 43.125,38.839 40.982,40.982C38.839,43.125 36.286,44.83 33.321,46.098C30.357,47.366 27.25,48 24,48C20.75,48 17.643,47.366 14.679,46.098C11.714,44.83 9.161,43.125 7.018,40.982C4.875,38.839 3.17,36.286 1.902,33.321C0.634,30.357 -0,27.25 0,24C0,20.75 0.634,17.643 1.902,14.679C3.17,11.714 4.875,9.161 7.018,7.018C9.161,4.875 11.714,3.17 14.679,1.902C17.643,0.634 20.75,0 24,0C27.25,-0 30.357,0.634 33.321,1.902C36.286,3.17 38.839,4.875 40.982,7.018C43.125,9.161 44.83,11.714 46.098,14.679C47.366,17.643 48,20.75 48,24Z" style="fill-rule:nonzero;"/>
        </g>
    </g>
</svg>
