<?xml version="1.0" encoding="UTF-8"?>
<!DOCTYPE svg PUBLIC "-//W3C//DTD SVG 1.1//EN" "http://www.w3.org/Graphics/SVG/1.1/DTD/svg11.dtd">
<svg version="1.1" xmlns="http://www.w3.org/2000/svg" xmlns:xlink="http://www.w3.org/1999/xlink" viewBox="0, 0, 24, 24">
  <g id="layer">
    <path d="M19.831,14.53 C19.432,13.245 18.971,12.165 18.264,10.398 C18.374,5.755 16.444,2 11.999,2 C7.504,2 5.617,5.83 5.737,10.398 C5.027,12.167 4.569,13.239 4.17,14.53 C3.319,17.267 3.595,18.399 3.804,18.424 C4.254,18.479 5.557,16.364 5.557,16.364 C5.557,17.589 6.187,19.187 7.552,20.339 C6.892,20.541 5.409,21.087 5.761,21.684 C6.047,22.167 10.667,21.991 11.999,21.842 C13.331,21.991 17.951,22.167 18.236,21.684 C18.589,21.089 17.104,20.541 16.446,20.339 C17.812,19.185 18.441,17.587 18.441,16.364 C18.441,16.364 19.743,18.479 20.193,18.424 C20.406,18.397 20.681,17.264 19.831,14.53 z" fill="#000000" id="shape"/>
  </g>
</svg>
