<?xml version="1.0" encoding="UTF-8" standalone="no"?>
<!DOCTYPE svg PUBLIC "-//W3C//DTD SVG 1.1//EN" "http://www.w3.org/Graphics/SVG/1.1/DTD/svg11.dtd">
<svg width="100%" height="100%" viewBox="0 0 24 24" version="1.1" xmlns="http://www.w3.org/2000/svg" xmlns:xlink="http://www.w3.org/1999/xlink" xml:space="preserve" xmlns:serif="http://www.serif.com/" style="fill-rule:evenodd;clip-rule:evenodd;stroke-linejoin:round;stroke-miterlimit:2;">
    <g transform="matrix(0.486111,0,0,0.486111,0.333333,0.333333)">
        <g id="layer">
            <path id="shape" d="M33.616,32.411C33.616,31.839 33.348,31.384 32.813,31.045C29.366,28.991 25.375,27.964 20.839,27.964C18.464,27.964 15.902,28.268 13.152,28.875C12.402,29.036 12.027,29.5 12.027,30.268C12.027,30.625 12.147,30.933 12.388,31.192C12.629,31.451 12.946,31.58 13.339,31.58C13.429,31.58 13.759,31.509 14.33,31.366C16.688,30.884 18.857,30.643 20.839,30.643C24.875,30.643 28.42,31.563 31.473,33.402C31.812,33.598 32.107,33.696 32.357,33.696C32.696,33.696 32.991,33.576 33.241,33.335C33.491,33.094 33.616,32.786 33.616,32.411ZM36.188,26.652C36.188,25.938 35.875,25.393 35.25,25.018C31.018,22.5 26.125,21.241 20.571,21.241C17.839,21.241 15.134,21.616 12.455,22.366C11.598,22.598 11.17,23.17 11.17,24.08C11.17,24.527 11.326,24.906 11.638,25.219C11.951,25.531 12.33,25.688 12.777,25.688C12.902,25.688 13.232,25.616 13.768,25.473C15.946,24.884 18.188,24.589 20.491,24.589C25.473,24.589 29.83,25.696 33.563,27.911C33.991,28.143 34.33,28.259 34.58,28.259C35.027,28.259 35.406,28.103 35.719,27.79C36.031,27.478 36.188,27.098 36.188,26.652ZM39.08,20.009C39.08,19.17 38.723,18.545 38.009,18.134C35.759,16.83 33.143,15.844 30.161,15.174C27.179,14.504 24.116,14.17 20.973,14.17C17.33,14.17 14.08,14.589 11.223,15.429C10.812,15.554 10.469,15.781 10.192,16.112C9.915,16.442 9.777,16.875 9.777,17.411C9.777,17.964 9.96,18.429 10.326,18.804C10.692,19.179 11.152,19.366 11.705,19.366C11.902,19.366 12.259,19.295 12.777,19.152C15.152,18.491 17.893,18.161 21,18.161C23.839,18.161 26.603,18.464 29.29,19.071C31.978,19.679 34.241,20.527 36.08,21.616C36.455,21.83 36.813,21.937 37.152,21.937C37.67,21.937 38.121,21.754 38.504,21.388C38.888,21.022 39.08,20.562 39.08,20.009ZM44.571,24C44.571,27.732 43.652,31.174 41.813,34.326C39.973,37.478 37.478,39.973 34.326,41.813C31.174,43.652 27.732,44.571 24,44.571C20.268,44.571 16.826,43.652 13.674,41.813C10.522,39.973 8.027,37.478 6.188,34.326C4.348,31.174 3.429,27.732 3.429,24C3.429,20.268 4.348,16.826 6.188,13.674C8.027,10.522 10.522,8.027 13.674,6.188C16.826,4.348 20.268,3.429 24,3.429C27.732,3.429 31.174,4.348 34.326,6.188C37.478,8.027 39.973,10.522 41.813,13.674C43.652,16.826 44.571,20.268 44.571,24Z" style="fill-rule:nonzero;"/>
        </g>
    </g>
</svg>
