<?xml version="1.0" encoding="UTF-8" standalone="no"?>
<!DOCTYPE svg PUBLIC "-//W3C//DTD SVG 1.1//EN" "http://www.w3.org/Graphics/SVG/1.1/DTD/svg11.dtd">
<svg width="100%" height="100%" viewBox="0 0 24 24" version="1.1" xmlns="http://www.w3.org/2000/svg" xmlns:xlink="http://www.w3.org/1999/xlink" xml:space="preserve" xmlns:serif="http://www.serif.com/" style="fill-rule:evenodd;clip-rule:evenodd;stroke-linejoin:round;stroke-miterlimit:2;">
    <g transform="matrix(0.215285,0,0,0.215285,-0.927879,-1.65985)">
        <g id="layer">
            <path id="shape" d="M22.4,77.3L22.4,81.3C22.4,88.1 27.8,93.6 34.4,93.6L66.4,93.6L66.4,109.9L82.2,93.6L85.7,93.6C92.3,93.6 97.7,88.1 97.7,81.3L97.7,77.3L22.4,77.3ZM22.4,57.5L97.2,57.5L97.2,72.9L22.4,72.9L22.4,57.5ZM22.4,37.6L97.2,37.6L97.2,53L22.4,53L22.4,37.6ZM85.5,17L34.4,17C27.8,17 22.4,22.5 22.4,29.3L22.4,33.3L97.2,33.3L97.2,29.3C97.2,22.5 92,17 85.5,17Z" style="fill-rule:nonzero;"/>
        </g>
    </g>
</svg>
