<?xml version="1.0" encoding="UTF-8" standalone="no"?>
<!DOCTYPE svg PUBLIC "-//W3C//DTD SVG 1.1//EN" "http://www.w3.org/Graphics/SVG/1.1/DTD/svg11.dtd">
<svg width="100%" height="100%" viewBox="0 0 24 24" version="1.1" xmlns="http://www.w3.org/2000/svg" xmlns:xlink="http://www.w3.org/1999/xlink" xml:space="preserve" xmlns:serif="http://www.serif.com/" style="fill-rule:evenodd;clip-rule:evenodd;stroke-linejoin:round;stroke-miterlimit:2;">
    <g transform="matrix(1.00481,0,0,1,-0.0576831,5.06262e-14)">
        <g id="layer">
            <path id="shape" d="M17.938,3.943C17.969,3.966 18,3.99 18.032,4.014C18.092,4.059 18.152,4.106 18.211,4.153C18.397,4.302 18.58,4.459 18.757,4.622C18.857,4.715 18.955,4.809 19.052,4.906C19.485,5.34 19.873,5.806 20.213,6.3C20.321,6.456 20.424,6.614 20.522,6.776C20.635,6.962 20.742,7.152 20.842,7.345L20.848,7.357L20.864,7.387C21.576,8.771 21.953,10.316 21.952,11.918C21.952,11.997 21.951,12.076 21.949,12.155C21.879,15.101 20.516,17.734 18.408,19.506C18.081,19.78 17.737,20.034 17.378,20.265L17.327,20.297C17.162,20.401 16.993,20.501 16.822,20.596C16.761,20.63 16.7,20.663 16.639,20.695C16.605,20.713 16.57,20.731 16.535,20.749C16.425,20.805 16.315,20.859 16.203,20.911C15.636,21.175 15.039,21.386 14.419,21.54C14.37,21.552 14.32,21.564 14.27,21.575C14.197,21.592 14.123,21.608 14.049,21.624L14.02,21.63L13.975,21.639C13.955,21.643 13.935,21.647 13.915,21.65L13.895,21.654C13.598,21.711 13.296,21.754 12.991,21.783L12.928,21.789C12.739,21.806 12.549,21.817 12.357,21.823C12.252,21.826 12.147,21.828 12.042,21.828L12.038,21.828C10.749,21.828 9.479,21.577 8.297,21.094C7.957,20.956 7.625,20.798 7.302,20.622L2.048,22L3.454,16.864C3.169,16.371 2.929,15.856 2.734,15.325L2.707,15.249C2.694,15.214 2.682,15.178 2.67,15.143C2.615,14.984 2.565,14.824 2.518,14.663C2.418,14.317 2.338,13.966 2.276,13.61C2.18,13.052 2.131,12.483 2.131,11.91C2.131,11.337 2.18,10.776 2.274,10.229C2.284,10.169 2.295,10.109 2.307,10.05L2.309,10.036L2.316,10.003C2.351,9.823 2.391,9.645 2.436,9.469C2.445,9.435 2.453,9.401 2.462,9.367L2.476,9.318L2.491,9.263C2.538,9.092 2.591,8.922 2.647,8.754C2.826,8.223 3.049,7.713 3.31,7.227C3.408,7.046 3.511,6.868 3.619,6.694C3.639,6.662 3.659,6.63 3.679,6.598C3.747,6.492 3.817,6.386 3.89,6.282L3.895,6.275L3.921,6.237C3.939,6.211 3.957,6.185 3.976,6.159C4.068,6.031 4.163,5.904 4.261,5.78L4.286,5.749C4.298,5.733 4.311,5.718 4.323,5.702L4.361,5.656C4.373,5.641 4.386,5.625 4.398,5.61L4.415,5.59C4.456,5.54 4.498,5.491 4.539,5.443C4.618,5.352 4.699,5.262 4.78,5.174C4.811,5.141 4.841,5.109 4.872,5.076L4.914,5.033L4.946,5C5.088,4.854 5.234,4.713 5.384,4.576C5.481,4.488 5.58,4.402 5.681,4.317C5.85,4.176 6.023,4.039 6.202,3.909L6.213,3.9L6.234,3.885C6.33,3.816 6.427,3.748 6.525,3.682L6.555,3.661C6.572,3.65 6.588,3.639 6.605,3.628L6.639,3.607C6.687,3.575 6.737,3.543 6.786,3.512C7.619,2.989 8.535,2.586 9.509,2.328C10.317,2.114 11.166,2 12.042,2C12.435,2 12.825,2.023 13.21,2.068L13.271,2.075C14.267,2.198 15.228,2.469 16.129,2.877C16.293,2.951 16.455,3.03 16.615,3.113C16.774,3.196 16.931,3.284 17.085,3.375C17.194,3.44 17.302,3.507 17.409,3.576L17.439,3.595C17.456,3.606 17.473,3.617 17.49,3.629L17.518,3.648C17.609,3.708 17.698,3.769 17.787,3.833L17.832,3.865C17.851,3.879 17.87,3.893 17.889,3.907L17.938,3.943ZM13.556,3.812C13.063,3.721 12.558,3.674 12.045,3.674C10.199,3.674 8.493,4.284 7.118,5.312L7.039,5.372L7,5.403C6.845,5.523 6.694,5.649 6.548,5.78C6.389,5.923 6.235,6.072 6.087,6.226C5.943,6.378 5.804,6.535 5.671,6.697C5.492,6.915 5.324,7.143 5.167,7.379C5.146,7.411 5.125,7.443 5.105,7.475C4.889,7.812 4.696,8.165 4.531,8.532L4.514,8.57L4.493,8.615C4.487,8.631 4.48,8.646 4.473,8.661L4.454,8.707C4.409,8.812 4.367,8.918 4.327,9.024C4.319,9.045 4.311,9.066 4.304,9.087C4.253,9.227 4.205,9.368 4.161,9.511C3.93,10.27 3.805,11.076 3.804,11.91C3.804,12.641 3.9,13.362 4.086,14.057L4.105,14.125C4.111,14.148 4.118,14.171 4.124,14.194L4.141,14.249C4.161,14.32 4.183,14.39 4.206,14.46C4.218,14.498 4.231,14.536 4.244,14.574C4.3,14.741 4.363,14.906 4.43,15.068C4.53,15.309 4.641,15.546 4.764,15.776C4.781,15.809 4.798,15.841 4.816,15.873L4.842,15.92L4.878,15.983L4.909,16.037C4.929,16.072 4.95,16.108 4.971,16.143L4.987,16.171L5.025,16.233L5.064,16.294L5.259,16.606L4.427,19.646L7.545,18.828L7.846,19.006C7.963,19.076 8.082,19.142 8.202,19.206C8.225,19.218 8.248,19.23 8.271,19.242L8.328,19.271L8.367,19.29C9.502,19.857 10.759,20.154 12.038,20.154L12.042,20.154C12.112,20.154 12.183,20.153 12.254,20.152C12.29,20.151 12.327,20.15 12.364,20.148C12.446,20.145 12.528,20.141 12.609,20.135L12.635,20.133C12.697,20.129 12.759,20.124 12.82,20.118L12.83,20.117C13.075,20.094 13.316,20.059 13.555,20.015C13.654,19.997 13.752,19.976 13.849,19.954L13.899,19.943L13.949,19.931L13.956,19.93C14.107,19.894 14.255,19.854 14.402,19.81C14.642,19.738 14.878,19.655 15.108,19.562C18.135,18.343 20.277,15.375 20.279,11.917C20.28,9.716 19.424,7.647 17.869,6.09C16.7,4.919 15.241,4.144 13.655,3.831L13.615,3.823L13.565,3.814L13.556,3.812ZM14.635,13.117L14.653,13.119L14.671,13.122L14.691,13.125L14.708,13.129L14.719,13.132C14.766,13.143 14.815,13.16 14.868,13.179C14.882,13.185 14.9,13.192 14.922,13.201C14.994,13.231 15.104,13.281 15.234,13.342L15.311,13.378L15.352,13.397C15.508,13.471 15.684,13.556 15.852,13.638C16.164,13.789 16.453,13.931 16.56,13.985C16.646,14.028 16.723,14.064 16.788,14.097C16.842,14.124 16.889,14.148 16.928,14.174C16.961,14.195 16.989,14.218 17.01,14.242L17.017,14.249C17.023,14.257 17.029,14.266 17.035,14.274C17.096,14.378 17.096,14.873 16.89,15.452C16.84,15.592 16.745,15.729 16.622,15.857C16.236,16.259 15.579,16.575 15.219,16.629C15.045,16.655 14.853,16.675 14.647,16.677L14.599,16.677C14.454,16.676 14.303,16.666 14.145,16.643L14.093,16.635C14.05,16.628 14.007,16.62 13.963,16.611C13.863,16.59 13.762,16.564 13.659,16.531C13.569,16.503 13.473,16.472 13.37,16.437C13.344,16.429 13.317,16.42 13.29,16.411L13.21,16.383L13.146,16.361C12.886,16.27 12.588,16.157 12.247,16.01C10.722,15.351 9.522,14.154 8.794,13.29C8.439,12.868 8.196,12.526 8.083,12.364C8.05,12.317 8.028,12.285 8.017,12.271C7.945,12.175 7.616,11.737 7.352,11.148L7.334,11.109L7.314,11.06L7.296,11.018C7.155,10.679 7.042,10.296 7.013,9.904L7.012,9.88C7.011,9.87 7.01,9.861 7.01,9.851L7.009,9.842C7.007,9.798 7.006,9.753 7.006,9.709C7.006,8.858 7.317,8.31 7.583,7.972C7.66,7.873 7.733,7.793 7.793,7.728C7.823,7.696 7.85,7.668 7.873,7.643C7.979,7.527 8.094,7.451 8.204,7.404L8.223,7.396C8.34,7.349 8.45,7.333 8.533,7.333C8.698,7.333 8.863,7.335 9.007,7.342C9.151,7.349 9.342,7.291 9.532,7.694L9.536,7.703C9.54,7.709 9.543,7.716 9.546,7.723L9.551,7.735C9.556,7.746 9.56,7.756 9.565,7.767L9.604,7.861C9.828,8.402 10.27,9.489 10.328,9.606C10.335,9.619 10.342,9.633 10.348,9.648C10.38,9.721 10.401,9.8 10.393,9.887C10.389,9.935 10.375,9.986 10.349,10.039C10.266,10.205 10.225,10.308 10.101,10.453C9.977,10.597 9.841,10.775 9.73,10.886C9.683,10.933 9.636,10.981 9.603,11.035C9.549,11.124 9.532,11.232 9.615,11.381L9.621,11.392C9.655,11.449 9.707,11.537 9.777,11.645C9.808,11.694 9.843,11.747 9.881,11.804C10.126,12.166 10.509,12.671 10.999,13.107C11.735,13.764 12.381,14.068 12.748,14.229C12.853,14.275 12.935,14.309 12.99,14.336C13.083,14.383 13.161,14.409 13.231,14.415L13.248,14.416C13.253,14.416 13.259,14.416 13.264,14.416L13.281,14.415L13.297,14.414C13.382,14.403 13.454,14.357 13.527,14.274C13.655,14.128 14.044,13.671 14.245,13.397C14.27,13.363 14.292,13.331 14.311,13.303C14.329,13.277 14.346,13.253 14.365,13.233C14.44,13.147 14.516,13.116 14.6,13.116L14.618,13.116L14.635,13.117Z"/>
        </g>
    </g>
</svg>
